<svg xmlns="http://www.w3.org/2000/svg" version="1.1" xmlns:xlink="http://www.w3.org/1999/xlink" xmlns:svgjs="http://svgjs.dev/svgjs" width="2000" height="1500" viewBox="0 0 2000 1500"><rect width="2000" height="1500" fill="#28353b"></rect><g transform="matrix(0.75,0,0,0.75,250,0.0002621724496520983)"><svg viewBox="0 0 280 280" data-background-color="#28353b" preserveAspectRatio="xMidYMid meet" height="2000" width="2000" xmlns="http://www.w3.org/2000/svg" xmlns:xlink="http://www.w3.org/1999/xlink"><defs></defs><g id="tight-bounds" transform="matrix(1,0,0,1,0,-0.000048938857275970804)"><svg viewBox="0 0 280 280" height="280" width="280"><g><svg viewBox="0 0 280 280" height="280" width="280"><g transform="matrix(1,0,0,1,61.06587453238079,117.4941586488508)"><svg viewBox="0 0 157.86825093523842 45.011682702298394" height="45.011682702298394" width="157.86825093523842"><g><svg viewBox="0 0 157.86825093523842 45.011682702298394" height="45.011682702298394" width="157.86825093523842"><g transform="matrix(1,0,0,1,0,33.758975828154405)"><svg viewBox="0 0 157.86825093523842 11.252706874143989" height="11.252706874143989" width="157.86825093523842"><g><svg viewBox="0 0 157.86825093523842 11.252706874143989" height="11.252706874143989" width="157.86825093523842"><g><svg viewBox="0 0 157.86825093523842 11.252706874143989" height="11.252706874143989" width="157.86825093523842"><g transform="matrix(1,0,0,1,0,0)"><svg width="157.86825093523842" viewBox="2.6100001335144043 -38.22999954223633 567.7900390625 39.90999984741211" height="11.252706874143989" data-palette-color="#ffffff"><g class="undefined-text-0" data-fill-palette-color="primary" id="text-0"><path d="M2.91-32.52L2.91-32.52Q3.05-32.62 3.41-32.78 3.76-32.93 4.24-33.13 4.71-33.33 5.26-33.56 5.81-33.79 6.37-34.01L6.37-34.01 9.2-35.13Q9.52-35.28 9.79-35.28L9.79-35.28Q9.99-35.28 10.22-35.17 10.45-35.06 10.74-34.77L10.74-34.77 16.38-23.83 16.53-24.19 18.95-28.66Q19.41-29.49 19.86-30.3 20.31-31.1 20.67-31.74 21.02-32.37 21.26-32.76 21.51-33.15 21.56-33.15L21.56-33.15 29.93-35.25Q30.22-35.33 30.42-35.33L30.42-35.33Q30.98-35.33 30.98-34.81L30.98-34.81Q30.96-34.69 30.93-34.48 30.91-34.28 30.79-34.03L30.79-34.03 23.61-20.73Q23.07-19.73 22.52-18.73 21.97-17.72 21.46-16.83 20.95-15.94 20.54-15.21 20.14-14.48 19.9-14.01L19.9-14.01 19.73-13.21 18.36-4.05Q18.29-3.64 18.24-3.37 18.19-3.1 18.1-2.93 18.02-2.76 17.88-2.64 17.75-2.51 17.5-2.39L17.5-2.39 10.57 1.25Q10.18 1.44 9.75 1.56 9.33 1.68 8.94 1.68L8.94 1.68Q8.52 1.68 8.23 1.5 7.93 1.32 7.93 0.9L7.93 0.9 7.93 0.81Q8.03-0.59 8.29-2.43 8.54-4.27 8.84-6.03L8.84-6.03 10.21-15.09Q9.81-15.92 9.18-17.29 8.54-18.65 7.81-20.24 7.08-21.83 6.29-23.51 5.49-25.2 4.8-26.7 4.1-28.2 3.55-29.35 3-30.49 2.73-31.03L2.73-31.03Q2.61-31.4 2.61-31.79L2.61-31.79Q2.61-32.01 2.67-32.21 2.73-32.42 2.91-32.52ZM35.96 0.88L35.96 0.78Q36.08-1 36.2-2.66 36.33-4.32 36.42-5.88L36.42-5.88 37.3-17.41Q37.45-18.73 37.55-19.81 37.64-20.9 37.71-21.94 37.77-22.97 37.83-24.04 37.89-25.1 37.96-26.39L37.96-26.39Q37.16-26.42 36.26-26.42 35.37-26.42 34.4-26.42L34.4-26.42 29.68-26.42Q29.42-26.42 29.36-26.62 29.29-26.83 29.29-27L29.29-27 29.29-27.17 31.98-34.23 31.96-34.33Q31.96-34.45 32.11-34.53 32.27-34.62 32.83-34.67L32.83-34.67Q36.2-34.86 39.37-35.05 42.53-35.23 45.62-35.38 48.7-35.52 51.79-35.67 54.88-35.82 58.15-35.94L58.15-35.94Q58.44-35.94 58.77-35.86 59.1-35.79 59.1-35.33L59.1-35.33Q59.1-35.28 59.08-35.23 59.06-35.18 59.06-35.13L59.06-35.13Q58.66-34.13 58.33-33.23 58.01-32.32 57.69-31.45 57.37-30.57 57.04-29.66 56.71-28.76 56.32-27.76L56.32-27.76Q56.3-27.73 56.22-27.53 56.15-27.32 56-27.06 55.86-26.81 55.61-26.59 55.37-26.37 55-26.34L55-26.34Q54.88-26.37 54.76-26.37 54.64-26.37 54.49-26.37L54.49-26.37 47.97-26.37Q47.85-25.12 47.74-23.73 47.63-22.34 47.48-21.02L47.48-21.02 45.7-1.95Q45.68-1.73 45.62-1.51 45.55-1.29 45.29-1.2L45.29-1.2 38.38 1.29Q38.11 1.39 37.67 1.54 37.23 1.68 36.81 1.68L36.81 1.68Q36.47 1.68 36.22 1.51 35.96 1.34 35.96 0.88L35.96 0.88Z" fill="#ffffff" data-fill-palette-color="primary"></path><path d="M93.5-34.3L80.56-2.15Q80.44-1.83 80.33-1.54 80.22-1.25 80.05-1 79.88-0.76 79.62-0.56 79.36-0.37 78.97-0.24L78.97-0.24Q77.43 0.24 75.92 0.6 74.41 0.95 72.87 1.46L72.87 1.46Q72.58 1.56 72.36 1.61 72.14 1.66 71.94 1.66L71.94 1.66Q71.5 1.66 71.31 1.44 71.11 1.22 71.01 0.88L71.01 0.88 62.66-32.32Q62.47-32.96 62.47-33.37L62.47-33.37Q62.47-33.91 62.81-34.27 63.15-34.62 63.92-34.85 64.69-35.08 65.9-35.28 67.11-35.47 68.87-35.72L68.87-35.72Q69.72-35.84 70.31-35.9 70.89-35.96 71.31-35.96L71.31-35.96Q72.02-35.96 72.25-35.73 72.48-35.5 72.67-35.01L72.67-35.01 77.34-14.84 83.9-33.37Q84.05-33.76 84.16-34.01 84.27-34.25 84.58-34.44 84.88-34.62 85.5-34.8 86.13-34.99 87.3-35.23L87.3-35.23Q89.13-35.62 90.33-35.79 91.52-35.96 92.25-35.96L92.25-35.96Q93.18-35.96 93.46-35.74 93.74-35.52 93.74-35.11L93.74-35.11Q93.77-34.94 93.68-34.75 93.6-34.57 93.5-34.3L93.5-34.3ZM94.35 0.78L94.35 0.78 95.57-15.92Q96.18-24.32 96.48-28.25 96.77-32.18 96.77-32.15L96.77-32.15Q96.79-32.59 96.82-32.89 96.84-33.18 96.91-33.37 96.99-33.57 97.11-33.67 97.23-33.76 97.48-33.81L97.48-33.81 105.92-35.84Q106.24-35.94 106.58-35.94L106.58-35.94Q106.92-35.94 107.05-35.73 107.17-35.52 107.17-34.89L107.17-34.89Q107-33.37 106.9-32.06 106.8-30.74 106.74-29.54 106.68-28.34 106.63-27.23 106.58-26.12 106.51-25.02L106.51-25.02Q106.36-23.83 106.25-22.63 106.14-21.44 106.05-20.15 105.95-18.87 105.84-17.44 105.73-16.02 105.58-14.33L105.58-14.33 104.51-1.46Q104.48-1.25 104.42-1.04 104.36-0.83 104.09-0.71L104.09-0.71Q104.07-0.71 103.8-0.61 103.53-0.51 103.09-0.35 102.65-0.2 102.07-0.02 101.48 0.15 100.82 0.29L100.82 0.29Q99.72 0.54 98.9 0.78 98.09 1.03 97.45 1.23 96.82 1.44 96.28 1.56 95.74 1.68 95.21 1.68L95.21 1.68Q94.84 1.68 94.6 1.49 94.35 1.29 94.35 0.78ZM115.88 1.27L111.44 1.27Q111.17 1.22 111.05 1 110.93 0.78 110.93 0.51L110.93 0.51Q110.93 0.29 111.02 0.12L111.02 0.12 114.03-5.62Q114.05-5.71 114.11-6.37 114.17-7.03 114.25-8.02 114.32-9.01 114.41-10.23 114.49-11.45 114.59-12.65 114.69-13.84 114.77-14.93 114.86-16.02 114.93-16.75L114.93-16.75Q114.95-17.04 115-17.64 115.05-18.24 115.1-19.02 115.15-19.8 115.22-20.7 115.3-21.61 115.37-22.51L115.37-22.51 115.71-27.61Q115.05-27.47 114.34-27.31 113.64-27.15 112.96-27.03 112.29-26.9 111.7-26.82 111.1-26.73 110.66-26.73L110.66-26.73Q110.39-26.73 110.25-26.98 110.12-27.22 110.12-27.49L110.12-27.49Q110.12-27.81 110.27-27.95L110.27-27.95 116.47-33.74Q117.22-34.42 117.97-34.85 118.71-35.28 119.76-35.52 120.81-35.77 122.34-35.85 123.87-35.94 126.21-35.94L126.21-35.94Q130.21-35.94 133.31-35.11 136.41-34.28 138.56-32.74L138.56-32.74Q140.15-31.64 141.39-30.44 142.64-29.25 143.49-27.8 144.35-26.34 144.79-24.6 145.23-22.85 145.23-20.65L145.23-20.65Q145.23-16.48 143.98-13.23 142.74-9.99 140.59-7.56 138.44-5.13 135.57-3.44 132.7-1.76 129.44-0.71 126.18 0.34 122.71 0.81 119.23 1.27 115.88 1.27L115.88 1.27ZM125.62-28.13L125.62-28.13 125.33-25.17Q125.18-23.63 125.03-21.89 124.87-20.14 124.72-18.35 124.57-16.55 124.43-14.81 124.28-13.06 124.16-11.55 124.04-10.03 123.94-8.84 123.84-7.64 123.77-6.93L123.77-6.93 123.69-6.2Q126.65-6.2 128.69-7.15 130.73-8.11 132-9.78 133.26-11.45 133.84-13.7 134.41-15.94 134.41-18.53L134.41-18.53Q134.41-20.39 133.9-22.11 133.39-23.83 132.41-25.39L132.41-25.39Q131.43-26.95 130.02-27.73 128.6-28.52 126.82-28.52L126.82-28.52Q126.53-28.52 126.18-28.38 125.84-28.25 125.62-28.13ZM169.93-20.26L169.93-20.26Q169.83-19.92 169.57-19.3 169.3-18.68 168.94-17.9 168.59-17.11 168.19-16.22 167.78-15.33 167.39-14.43L167.39-14.43Q167.25-14.09 167.12-13.93 167-13.77 166.73-13.7 166.47-13.62 165.99-13.61 165.51-13.6 164.66-13.57L164.66-13.57 161.27-13.5 160.58-6.03 173.11-6.03 173.11-5.08Q173.06-5.03 172.69-4.43 172.32-3.83 171.84-3 171.35-2.17 170.81-1.33 170.27-0.49 169.91 0.02L169.91 0.02Q169.66 0.46 169.35 0.72 169.03 0.98 168.65 1.1 168.27 1.22 167.82 1.25 167.37 1.27 166.83 1.27L166.83 1.27Q164.63 1.27 162.25 1.17 159.87 1.07 157.51 0.93 155.14 0.78 152.88 0.6 150.62 0.42 148.69 0.22L148.69 0.22Q148.52 0.2 148.39 0.02 148.25-0.15 148.25-0.37L148.25-0.37Q148.16-0.37 148.39-0.78 148.62-1.2 149.03-1.86 149.45-2.51 149.95-3.36 150.45-4.2 150.91-5.05L150.91-5.05 151.3-10.55Q151.4-11.94 151.46-12.62 151.52-13.31 151.52-13.35L151.52-13.35Q150.06-13.38 149.34-13.5 148.62-13.62 148.62-14.04L148.62-14.04Q148.62-14.23 148.97-14.77 149.33-15.31 149.84-16 150.35-16.7 150.93-17.46 151.5-18.21 151.94-18.85L151.94-18.85 152.55-27.15 152.48-27.15Q151.94-27.12 151.5-27.11 151.06-27.1 150.69-27.1L150.69-27.1Q149.52-27.1 149.02-27.23 148.52-27.37 148.52-27.73L148.52-27.73Q148.52-27.91 148.81-28.44 149.11-28.98 149.55-29.68 149.99-30.37 150.47-31.14 150.96-31.91 151.35-32.57L151.35-32.57 152.82-35.06 163.02-35.06 175.06-35.94Q175.08-35.94 175.19-35.93 175.3-35.91 175.43-35.85 175.55-35.79 175.66-35.64 175.77-35.5 175.77-35.23L175.77-35.23 175.4-33.96Q175.23-33.42 174.99-32.82 174.74-32.23 174.45-31.59L174.45-31.59 173.37-28.76Q173.2-28.34 172.98-28.13 172.76-27.91 172.06-27.88L172.06-27.88Q170.2-27.83 167.92-27.72 165.64-27.61 162.68-27.51L162.68-27.51Q162.58-27.17 162.58-26.97 162.58-26.76 162.53-26.17L162.53-26.17 162.41-25.05Q162.36-24.27 162.27-23.36 162.17-22.46 162.02-21.14L162.02-21.14Q163.27-21.19 164.45-21.24 165.64-21.29 166.61-21.33 167.59-21.36 168.31-21.39 169.03-21.41 169.32-21.41L169.32-21.41Q169.52-21.41 169.76-21.26 170.01-21.12 170.01-20.7L170.01-20.7Q170.01-20.51 169.93-20.26ZM187.41-16.65L187.41-16.65Q187.41-14.89 187.79-13.12 188.17-11.35 189.05-9.94 189.92-8.52 191.37-7.64 192.81-6.76 194.93-6.76L194.93-6.76Q196.57-6.86 197.8-7.43 199.03-8.01 199.92-8.92 200.81-9.84 201.4-11.02 201.99-12.21 202.33-13.51 202.67-14.82 202.8-16.19 202.94-17.55 202.94-18.82L202.94-18.82Q202.94-20.56 202.47-22.18 202.01-23.8 201.08-25.05 200.15-26.29 198.78-27.05 197.4-27.81 195.56-27.81L195.56-27.81Q194.12-27.81 192.96-27.27 191.8-26.73 190.9-25.84 190-24.95 189.35-23.79 188.7-22.63 188.28-21.4 187.85-20.17 187.64-18.93 187.43-17.7 187.41-16.65ZM192.17 1.27L192.17 1.27Q188.51 1.27 185.63-0.1 182.75-1.46 180.76-3.8 178.77-6.13 177.71-9.19 176.64-12.26 176.64-15.67L176.64-15.67Q176.64-19.51 177.73-22.74 178.82-25.98 180.77-28.48 182.72-30.98 185.42-32.7 188.12-34.42 191.34-35.25L191.34-35.25Q191.63-35.25 191.79-35.72 191.95-36.18 192.07-36.74 192.2-37.3 192.37-37.77 192.54-38.23 192.85-38.23L192.85-38.23Q197.59-37.74 201.38-36.56 205.16-35.38 207.8-33.18 210.43-30.98 211.84-27.62 213.24-24.27 213.24-19.43L213.24-19.43Q213.24-16.33 212.48-13.6 211.73-10.86 210.36-8.56 208.99-6.25 207.08-4.43 205.16-2.61 202.82-1.34 200.47-0.07 197.77 0.6 195.08 1.27 192.17 1.27Z" fill="#ffd300" data-fill-palette-color="accent"></path><path d="M221.86 1.27L217.41 1.27Q217.15 1.22 217.02 1 216.9 0.78 216.9 0.51L216.9 0.51Q216.9 0.29 217 0.12L217 0.12 220-5.62Q220.03-5.71 220.09-6.37 220.15-7.03 220.22-8.02 220.3-9.01 220.38-10.23 220.47-11.45 220.56-12.65 220.66-13.84 220.75-14.93 220.83-16.02 220.91-16.75L220.91-16.75Q220.93-17.04 220.98-17.64 221.03-18.24 221.08-19.02 221.13-19.8 221.2-20.7 221.27-21.61 221.35-22.51L221.35-22.51 221.69-27.61Q221.03-27.47 220.32-27.31 219.61-27.15 218.94-27.03 218.27-26.9 217.67-26.82 217.07-26.73 216.63-26.73L216.63-26.73Q216.37-26.73 216.23-26.98 216.1-27.22 216.1-27.49L216.1-27.49Q216.1-27.81 216.24-27.95L216.24-27.95 222.44-33.74Q223.2-34.42 223.95-34.85 224.69-35.28 225.74-35.52 226.79-35.77 228.32-35.85 229.84-35.94 232.19-35.94L232.19-35.94Q236.19-35.94 239.29-35.11 242.39-34.28 244.54-32.74L244.54-32.74Q246.13-31.64 247.37-30.44 248.62-29.25 249.47-27.8 250.32-26.34 250.76-24.6 251.2-22.85 251.2-20.65L251.2-20.65Q251.2-16.48 249.96-13.23 248.71-9.99 246.57-7.56 244.42-5.13 241.55-3.44 238.68-1.76 235.42-0.71 232.16 0.34 228.68 0.81 225.2 1.27 221.86 1.27L221.86 1.27ZM231.6-28.13L231.6-28.13 231.31-25.17Q231.16-23.63 231-21.89 230.84-20.14 230.7-18.35 230.55-16.55 230.4-14.81 230.26-13.06 230.13-11.55 230.01-10.03 229.91-8.84 229.82-7.64 229.74-6.93L229.74-6.93 229.67-6.2Q232.62-6.2 234.66-7.15 236.7-8.11 237.97-9.78 239.24-11.45 239.81-13.7 240.39-15.94 240.39-18.53L240.39-18.53Q240.39-20.39 239.88-22.11 239.36-23.83 238.39-25.39L238.39-25.39Q237.41-26.95 235.99-27.73 234.58-28.52 232.8-28.52L232.8-28.52Q232.5-28.52 232.16-28.38 231.82-28.25 231.6-28.13ZM264.63-16.65L264.63-16.65Q264.63-14.89 265.01-13.12 265.39-11.35 266.26-9.94 267.14-8.52 268.58-7.64 270.02-6.76 272.15-6.76L272.15-6.76Q273.78-6.86 275.02-7.43 276.25-8.01 277.14-8.92 278.03-9.84 278.62-11.02 279.2-12.21 279.55-13.51 279.89-14.82 280.02-16.19 280.16-17.55 280.16-18.82L280.16-18.82Q280.16-20.56 279.69-22.18 279.23-23.8 278.3-25.05 277.37-26.29 275.99-27.05 274.61-27.81 272.78-27.81L272.78-27.81Q271.34-27.81 270.18-27.27 269.02-26.73 268.12-25.84 267.22-24.95 266.57-23.79 265.92-22.63 265.5-21.4 265.07-20.17 264.86-18.93 264.65-17.7 264.63-16.65ZM269.39 1.27L269.39 1.27Q265.73 1.27 262.85-0.1 259.97-1.46 257.98-3.8 255.99-6.13 254.92-9.19 253.86-12.26 253.86-15.67L253.86-15.67Q253.86-19.51 254.95-22.74 256.04-25.98 257.99-28.48 259.94-30.98 262.64-32.7 265.34-34.42 268.56-35.25L268.56-35.25Q268.85-35.25 269.01-35.72 269.17-36.18 269.29-36.74 269.41-37.3 269.59-37.77 269.76-38.23 270.07-38.23L270.07-38.23Q274.81-37.74 278.59-36.56 282.38-35.38 285.01-33.18 287.65-30.98 289.06-27.62 290.46-24.27 290.46-19.43L290.46-19.43Q290.46-16.33 289.7-13.6 288.95-10.86 287.58-8.56 286.21-6.25 284.29-4.43 282.38-2.61 280.03-1.34 277.69-0.07 274.99 0.6 272.3 1.27 269.39 1.27ZM323.44-17.5L328.25-33.13Q328.37-33.57 328.52-33.85 328.66-34.13 329.18-34.25L329.18-34.25 336.38-35.91Q336.43-35.91 336.5-35.94 336.57-35.96 336.62-35.96L336.62-35.96Q336.97-35.96 337.1-35.67 337.23-35.38 337.23-35.11L337.23-35.11Q337.23-35.06 337.22-34.91 337.21-34.77 337.19-34.72L337.19-34.72 327.08-4Q326.69-3 326.43-2.38 326.17-1.76 325.92-1.35 325.66-0.95 325.33-0.68 325-0.42 324.45-0.15 323.9 0.12 323.07 0.48 322.24 0.83 320.97 1.44L320.97 1.44Q320.53 1.66 320.29 1.66L320.29 1.66Q319.9 1.66 319.7 1.37 319.51 1.07 319.39 0.71L319.39 0.71 315.21-14.16 309.99-3.39Q309.87-3.1 309.43-2.61 308.99-2.12 308.44-1.61 307.89-1.1 307.34-0.62 306.79-0.15 306.45 0.15L306.45 0.15Q306.13 0.42 305.78 0.68 305.42 0.95 305.06 1.17 304.69 1.39 304.36 1.53 304.03 1.66 303.74 1.66L303.74 1.66Q303.1 1.66 302.91 0.95L302.91 0.95 293.44-32.45Q293.39-32.64 293.33-32.84 293.26-33.03 293.26-33.2L293.26-33.2Q293.26-33.81 293.56-34.23 293.85-34.64 294.58-34.94 295.32-35.23 296.54-35.41 297.76-35.6 299.64-35.72L299.64-35.72Q300.52-35.84 301.11-35.89 301.71-35.94 302.13-35.94L302.13-35.94Q302.83-35.94 303.05-35.72 303.27-35.5 303.44-34.99L303.44-34.99 308.47-15.63 312.65-22.8 310.96-30.15Q310.82-30.74 310.84-31.03L310.84-31.03Q310.84-31.59 311.14-31.93 311.43-32.28 312.11-32.5 312.8-32.71 313.91-32.89 315.02-33.06 316.63-33.28L316.63-33.28Q317.34-33.37 317.85-33.42 318.36-33.47 318.73-33.47L318.73-33.47Q319.46-33.47 319.73-33.25 320-33.03 320.12-32.54L320.12-32.54 323.44-17.5ZM359.3-14.43L359.3-32.71Q359.5-33.52 359.64-33.89 359.79-34.25 360.28-34.38L360.28-34.38 366.6-35.86Q366.89-35.96 367.24-35.96L367.24-35.96Q367.55-35.96 367.7-35.74 367.85-35.52 367.85-34.91L367.85-34.91Q367.7-34.33 367.6-33.12 367.5-31.91 367.46-30.47 367.41-29.03 367.38-27.58 367.36-26.12 367.36-25.05L367.36-25.05 367.36-23.71Q367.36-22.19 367.33-20.41 367.31-18.63 367.27-16.8 367.24-14.97 367.19-13.18 367.14-11.4 367.09-9.84L367.09-9.84 366.94-5.66Q366.92-5.54 366.92-5.44 366.92-5.35 366.92-5.25L366.92-5.25 366.92-4.88Q366.92-4.47 366.93-4.19 366.94-3.91 366.94-3.69L366.94-3.69Q366.94-3.44 366.91-3.25 366.87-3.05 366.72-2.87 366.58-2.69 366.32-2.49 366.06-2.29 365.63-2L365.63-2Q365.38-1.83 364.82-1.5 364.26-1.17 363.57-0.76 362.89-0.34 362.16 0.1 361.43 0.54 360.82 0.89 360.21 1.25 359.83 1.46 359.45 1.68 359.45 1.68L359.45 1.68 348.12-15.75 347.09-1.46Q347.07-1.27 347.01-1.05 346.95-0.83 346.68-0.71L346.68-0.71Q346.46-0.61 345.92-0.4 345.39-0.2 344.67 0.07 343.95 0.34 343.15 0.62 342.36 0.9 341.65 1.14 340.94 1.37 340.39 1.51 339.84 1.66 339.65 1.66L339.65 1.66Q339.28 1.66 339.04 1.46 338.79 1.27 338.79 0.76L338.79 0.76Q339.04-2.29 339.36-5.9 339.67-9.5 339.97-13.28 340.26-17.07 340.52-20.84 340.77-24.61 340.94-28L340.94-28Q340.94-28.1 340.64-28.65 340.33-29.2 339.95-29.85 339.58-30.49 339.27-31.07 338.96-31.64 338.96-31.79L338.96-31.79Q338.96-31.96 339.15-32.1 339.33-32.25 339.75-32.5L339.75-32.5 346.26-36.18Q346.34-36.18 346.47-36.21 346.61-36.23 346.7-36.23L346.7-36.23Q346.97-36.23 347.13-36.17 347.29-36.11 347.46-35.79L347.46-35.79 359.3-14.43ZM385.13-34.99L385.13-34.99Q385.11-34.4 385.03-33.53 384.96-32.67 384.87-31.7 384.79-30.74 384.68-29.75 384.57-28.76 384.48-27.93 384.4-27.1 384.35-26.5 384.3-25.9 384.3-25.73L384.3-25.73Q384.2-24.22 384.09-22.92 383.98-21.63 383.86-20.36 383.74-19.09 383.6-17.74 383.47-16.38 383.32-14.75 383.18-13.11 382.99-11.11 382.81-9.11 382.61-6.52L382.61-6.52 392.72-7.54Q393.41-7.62 393.85-7.62L393.85-7.62Q394.38-7.62 394.52-7.45 394.65-7.28 394.65-6.91L394.65-6.91Q394.65-6.86 394.63-6.77 394.6-6.69 394.52-6.45 394.43-6.2 394.27-5.74 394.11-5.27 393.85-4.44L393.85-4.44 393.31-2.83Q393.04-2.05 392.81-1.43 392.58-0.81 392.23-0.35 391.89 0.1 391.38 0.37 390.87 0.63 390.06 0.71L390.06 0.71Q389.55 0.76 388.67 0.79 387.79 0.83 386.64 0.87 385.5 0.9 384.17 0.95 382.83 1 381.44 1.07L381.44 1.07Q380.08 1.12 378.68 1.14 377.29 1.15 376.05 1.17 374.8 1.2 373.75 1.22 372.7 1.25 372.02 1.27L372.02 1.27Q371.38 1.27 371.1 1.17 370.82 1.07 370.82 0.85L370.82 0.85Q370.82 0.59 370.99 0.09 371.16-0.42 371.43-1.04 371.7-1.66 372.03-2.33 372.36-3 372.68-3.64L372.68-3.64 373.34-12.35Q373.53-14.58 373.73-16.87 373.92-19.17 374.07-21.31L374.07-21.31 374.48-27.78Q374.63-30.08 374.68-31.12 374.73-32.15 374.73-32.25L374.73-32.25Q374.78-32.69 374.8-32.98 374.83-33.28 374.89-33.47 374.95-33.67 375.07-33.76 375.19-33.86 375.44-33.91L375.44-33.91 384.01-35.94Q384.27-36.04 384.67-36.04L384.67-36.04Q384.93-36.04 385.04-35.88 385.15-35.72 385.15-35.28L385.15-35.28Q385.15-35.23 385.14-35.14 385.13-35.06 385.13-34.99ZM407.42-16.65L407.42-16.65Q407.42-14.89 407.8-13.12 408.17-11.35 409.05-9.94 409.93-8.52 411.37-7.64 412.81-6.76 414.94-6.76L414.94-6.76Q416.57-6.86 417.81-7.43 419.04-8.01 419.93-8.92 420.82-9.84 421.41-11.02 421.99-12.21 422.33-13.51 422.68-14.82 422.81-16.19 422.94-17.55 422.94-18.82L422.94-18.82Q422.94-20.56 422.48-22.18 422.02-23.8 421.09-25.05 420.16-26.29 418.78-27.05 417.4-27.81 415.57-27.81L415.57-27.81Q414.13-27.81 412.97-27.27 411.81-26.73 410.91-25.84 410-24.95 409.36-23.79 408.71-22.63 408.28-21.4 407.86-20.17 407.65-18.93 407.44-17.7 407.42-16.65ZM412.18 1.27L412.18 1.27Q408.52 1.27 405.63-0.1 402.75-1.46 400.76-3.8 398.77-6.13 397.71-9.19 396.65-12.26 396.65-15.67L396.65-15.67Q396.65-19.51 397.74-22.74 398.82-25.98 400.78-28.48 402.73-30.98 405.43-32.7 408.12-34.42 411.35-35.25L411.35-35.25Q411.64-35.25 411.8-35.72 411.96-36.18 412.08-36.74 412.2-37.3 412.37-37.77 412.54-38.23 412.86-38.23L412.86-38.23Q417.6-37.74 421.38-36.56 425.17-35.38 427.8-33.18 430.44-30.98 431.84-27.62 433.25-24.27 433.25-19.43L433.25-19.43Q433.25-16.33 432.49-13.6 431.73-10.86 430.37-8.56 429-6.25 427.08-4.43 425.17-2.61 422.82-1.34 420.48-0.07 417.78 0.6 415.08 1.27 412.18 1.27ZM434.81-1.78L434.81-1.78Q435.12-2.42 435.47-3.21 435.81-4 436.1-4.93L436.1-4.93 436.76-6.54Q436.32-7.2 435.87-7.97 435.42-8.74 435.05-9.55 434.68-10.35 434.45-11.16 434.22-11.96 434.22-12.72L434.22-12.72Q434.22-12.77 434.6-12.81 434.98-12.84 435.55-12.87 436.13-12.89 436.8-12.9 437.47-12.92 438.04-12.93 438.62-12.94 438.99-12.95 439.37-12.96 439.37-12.96L439.37-12.96Q439.93-14.43 440.47-15.75 441.01-17.07 441.55-18.41 442.08-19.75 442.62-21.15 443.16-22.56 443.69-24.17L443.69-24.17Q444.72-27.2 445.7-29.49 446.67-31.79 447.53-33.76L447.53-33.76Q447.62-34.01 447.86-34.22 448.09-34.42 448.36-34.57 448.63-34.72 448.88-34.81 449.14-34.91 449.28-34.96L449.28-34.96Q449.38-34.99 450.03-35.18 450.68-35.38 451.51-35.6 452.34-35.82 453.15-35.99 453.97-36.16 454.46-36.16L454.46-36.16 454.9-36.16Q455.29-36.16 455.64-35.97 456-35.79 456.12-35.25L456.12-35.25Q457.29-32.25 458.62-28.7 459.95-25.15 461.22-20.87L461.22-20.87Q461.91-18.58 462.57-16.53 463.23-14.48 463.88-12.52 464.54-10.57 465.21-8.62 465.89-6.67 466.59-4.59L466.59-4.59Q466.81-3.71 467.05-3.2 467.28-2.69 467.47-2.39 467.67-2.1 467.79-1.97 467.91-1.83 467.91-1.68L467.91-1.68Q467.91-1.54 467.45-1.39L467.45-1.39 462.2 0.32Q461.61 0.54 461 0.76 460.39 0.98 459.86 1.15 459.32 1.32 458.92 1.43 458.51 1.54 458.34 1.54L458.34 1.54 458.2 1.54Q457.85 1.54 457.71 1.33 457.56 1.12 457.51 0.93L457.51 0.93Q457.27 0.12 457.02-0.52 456.78-1.17 456.55-1.82 456.32-2.47 456.08-3.2 455.85-3.93 455.63-4.93L455.63-4.93Q455.58-5.05 455.36-5.14 455.14-5.22 454.84-5.27 454.53-5.32 454.19-5.33 453.85-5.35 453.56-5.35L453.56-5.35Q452.63-5.35 452.06-5.33 451.48-5.32 451.04-5.31 450.6-5.3 450.2-5.29 449.8-5.27 449.21-5.27L449.21-5.27Q448.5-5.27 447.76-5.29 447.01-5.3 446.4-5.32L446.4-5.32 445.01-5.37Q444.38-3.61 443.74-2.08 443.11-0.54 442.38 1.1L442.38 1.1Q442.33 1.29 442.14 1.42 441.96 1.54 441.77 1.54L441.77 1.54Q441.62 1.54 441.59 1.51L441.59 1.51Q439.23 0.66 437.61-0.17 436-1 434.81-1.78ZM451.26-23.73L451.26-23.73Q450.68-21.56 450.1-19.79 449.53-18.02 449.05-16.65 448.58-15.28 448.23-14.34 447.89-13.4 447.75-12.89L447.75-12.89 447.75-12.67Q447.75-12.52 447.72-12.48L447.72-12.48 453.58-12.48Q453.31-13.67 453.01-14.89 452.7-16.11 452.41-17.46 452.12-18.8 451.82-20.34 451.53-21.88 451.26-23.73ZM475.62 1.27L471.18 1.27Q470.91 1.22 470.79 1 470.67 0.78 470.67 0.51L470.67 0.51Q470.67 0.29 470.77 0.12L470.77 0.12 473.77-5.62Q473.79-5.71 473.85-6.37 473.92-7.03 473.99-8.02 474.06-9.01 474.15-10.23 474.23-11.45 474.33-12.65 474.43-13.84 474.51-14.93 474.6-16.02 474.67-16.75L474.67-16.75Q474.7-17.04 474.75-17.64 474.79-18.24 474.84-19.02 474.89-19.8 474.97-20.7 475.04-21.61 475.11-22.51L475.11-22.51 475.45-27.61Q474.79-27.47 474.09-27.31 473.38-27.15 472.71-27.03 472.04-26.9 471.44-26.82 470.84-26.73 470.4-26.73L470.4-26.73Q470.13-26.73 470-26.98 469.86-27.22 469.86-27.49L469.86-27.49Q469.86-27.81 470.01-27.95L470.01-27.95 476.21-33.74Q476.97-34.42 477.71-34.85 478.46-35.28 479.51-35.52 480.56-35.77 482.08-35.85 483.61-35.94 485.95-35.94L485.95-35.94Q489.96-35.94 493.06-35.11 496.16-34.28 498.31-32.74L498.31-32.74Q499.89-31.64 501.14-30.44 502.38-29.25 503.24-27.8 504.09-26.34 504.53-24.6 504.97-22.85 504.97-20.65L504.97-20.65Q504.97-16.48 503.73-13.23 502.48-9.99 500.33-7.56 498.18-5.13 495.31-3.44 492.45-1.76 489.19-0.71 485.93 0.34 482.45 0.81 478.97 1.27 475.62 1.27L475.62 1.27ZM485.37-28.13L485.37-28.13 485.07-25.17Q484.93-23.63 484.77-21.89 484.61-20.14 484.46-18.35 484.32-16.55 484.17-14.81 484.02-13.06 483.9-11.55 483.78-10.03 483.68-8.84 483.58-7.64 483.51-6.93L483.51-6.93 483.44-6.2Q486.39-6.2 488.43-7.15 490.47-8.11 491.74-9.78 493.01-11.45 493.58-13.7 494.16-15.94 494.16-18.53L494.16-18.53Q494.16-20.39 493.64-22.11 493.13-23.83 492.15-25.39L492.15-25.39Q491.18-26.95 489.76-27.73 488.34-28.52 486.56-28.52L486.56-28.52Q486.27-28.52 485.93-28.38 485.59-28.25 485.37-28.13ZM529.68-20.26L529.68-20.26Q529.58-19.92 529.31-19.3 529.04-18.68 528.69-17.9 528.33-17.11 527.93-16.22 527.53-15.33 527.14-14.43L527.14-14.43Q526.99-14.09 526.87-13.93 526.75-13.77 526.48-13.7 526.21-13.62 525.73-13.61 525.26-13.6 524.4-13.57L524.4-13.57 521.01-13.5 520.32-6.03 532.85-6.03 532.85-5.08Q532.8-5.03 532.43-4.43 532.07-3.83 531.58-3 531.09-2.17 530.55-1.33 530.02-0.49 529.65 0.02L529.65 0.02Q529.41 0.46 529.09 0.72 528.77 0.98 528.39 1.1 528.01 1.22 527.56 1.25 527.11 1.27 526.57 1.27L526.57 1.27Q524.38 1.27 522 1.17 519.62 1.07 517.25 0.93 514.88 0.78 512.62 0.6 510.36 0.42 508.43 0.22L508.43 0.22Q508.26 0.2 508.13 0.02 508-0.15 508-0.37L508-0.37Q507.9-0.37 508.13-0.78 508.36-1.2 508.78-1.86 509.19-2.51 509.69-3.36 510.19-4.2 510.66-5.05L510.66-5.05 511.05-10.55Q511.14-11.94 511.21-12.62 511.27-13.31 511.27-13.35L511.27-13.35Q509.8-13.38 509.08-13.5 508.36-13.62 508.36-14.04L508.36-14.04Q508.36-14.23 508.72-14.77 509.07-15.31 509.58-16 510.1-16.7 510.67-17.46 511.24-18.21 511.68-18.85L511.68-18.85 512.29-27.15 512.22-27.15Q511.68-27.12 511.24-27.11 510.8-27.1 510.44-27.1L510.44-27.1Q509.26-27.1 508.76-27.23 508.26-27.37 508.26-27.73L508.26-27.73Q508.26-27.91 508.56-28.44 508.85-28.98 509.29-29.68 509.73-30.37 510.22-31.14 510.71-31.91 511.1-32.57L511.1-32.57 512.56-35.06 522.77-35.06 534.8-35.94Q534.83-35.94 534.94-35.93 535.05-35.91 535.17-35.85 535.29-35.79 535.4-35.64 535.51-35.5 535.51-35.23L535.51-35.23 535.14-33.96Q534.97-33.42 534.73-32.82 534.48-32.23 534.19-31.59L534.19-31.59 533.12-28.76Q532.95-28.34 532.73-28.13 532.51-27.91 531.8-27.88L531.8-27.88Q529.94-27.83 527.66-27.72 525.38-27.61 522.42-27.51L522.42-27.51Q522.33-27.17 522.33-26.97 522.33-26.76 522.28-26.17L522.28-26.17 522.16-25.05Q522.11-24.27 522.01-23.36 521.91-22.46 521.76-21.14L521.76-21.14Q523.01-21.19 524.19-21.24 525.38-21.29 526.35-21.33 527.33-21.36 528.05-21.39 528.77-21.41 529.06-21.41L529.06-21.41Q529.26-21.41 529.5-21.26 529.75-21.12 529.75-20.7L529.75-20.7Q529.75-20.51 529.68-20.26ZM550.72-15.48L549.52-1.95Q549.5-1.73 549.44-1.53 549.37-1.32 549.11-1.2L549.11-1.2Q549.01-1.15 548.14-0.84 547.28-0.54 546.14-0.13 545 0.27 543.89 0.67 542.78 1.07 542.2 1.29L542.2 1.29Q541.9 1.42 541.48 1.55 541.05 1.68 540.63 1.68L540.63 1.68Q540.29 1.68 540.04 1.51 539.78 1.34 539.78 0.88L539.78 0.88Q539.78-0.2 539.84-1.09 539.9-1.98 540-2.95 540.1-3.93 540.21-5.11 540.32-6.3 540.41-7.93L540.41-7.93Q540.54-10.08 540.68-12.07 540.83-14.06 540.98-16.21L540.98-16.21 541.32-20.39Q541.39-21.41 541.46-22.47 541.54-23.54 541.61-24.66L541.61-24.66 541.88-27.64Q541.88-27.69 541.73-27.69L541.73-27.69Q541.54-27.69 541.07-27.6 540.61-27.51 539.98-27.39 539.34-27.27 538.57-27.14 537.8-27 537-26.88L537-26.88Q536.8-26.88 536.62-26.97 536.44-27.05 536.44-27.17L536.44-27.17Q536.44-27.27 536.48-27.32L536.48-27.32 540.44-34.23Q541.78-34.52 543.33-34.83 544.88-35.13 546.66-35.38 548.45-35.62 550.45-35.78 552.45-35.94 554.7-35.94L554.7-35.94Q557.24-35.89 559.64-35.44 562.05-34.99 563.91-33.92 565.78-32.86 566.92-31.04 568.05-29.22 568.05-26.44L568.05-26.44Q568.05-24.9 567.53-23.61 567-22.31 566.18-21.28 565.37-20.24 564.39-19.45 563.41-18.65 562.52-18.09 561.63-17.53 560.95-17.2 560.26-16.87 560.02-16.77L560.02-16.77Q560.02-16.72 560.06-16.65 560.09-16.58 560.21-16.37 560.34-16.16 560.57-15.78 560.8-15.41 561.17-14.75L561.17-14.75Q561.56-14.16 562.09-13.18 562.63-12.21 563.38-10.88 564.12-9.55 565.1-7.91 566.07-6.27 567.34-4.39L567.34-4.39Q567.76-4.03 568.3-3.94 568.83-3.86 569.3-3.85 569.76-3.83 570.08-3.8 570.4-3.76 570.4-3.49L570.4-3.49Q570.4-3.3 569.99-3.04 569.59-2.78 569.05-2.51 568.52-2.25 567.97-2 567.42-1.76 567.12-1.61L567.12-1.61Q566.54-1.32 565.9-1.05 565.27-0.78 564.54-0.45 563.8-0.12 562.91 0.32 562.02 0.76 560.9 1.37L560.9 1.37Q560.61 1.54 560.35 1.6 560.09 1.66 559.87 1.66L559.87 1.66Q559.43 1.66 559.12 1.45 558.8 1.25 558.58 0.95 558.36 0.66 558.22 0.35 558.09 0.05 557.99-0.15L557.99-0.15 550.72-15.48ZM551.99-28.86L551.01-18.48Q552.26-18.48 553.6-19.12 554.94-19.75 556.04-20.75 557.14-21.75 557.85-23.02 558.55-24.29 558.55-25.59L558.55-25.59Q558.55-29.13 554.31-29.13L554.31-29.13Q553.5-29.13 552.96-29.02 552.43-28.91 551.99-28.86L551.99-28.86Z" fill="#ffffff" data-fill-palette-color="primary"></path></g></svg></g></svg></g></svg></g></svg></g><g transform="matrix(1,0,0,1,57.06228233094364,0)"><svg viewBox="0 0 43.743686273351145 31.102481800133987" height="31.102481800133987" width="43.743686273351145"><g><svg xmlns="http://www.w3.org/2000/svg" xmlns:xlink="http://www.w3.org/1999/xlink" version="1.1" x="0" y="0" viewBox="6.85699987411499 19.32496452331543 86.28500366210938 61.350059509277344" enable-background="new 0 0 100 100" xml:space="preserve" height="31.102481800133987" width="43.743686273351145" class="icon-icon-0" data-fill-palette-color="accent" id="icon-0"><g fill="#ffd300" data-fill-palette-color="accent"><path d="M91.648 29.694c-1.056-4.57-4.81-7.938-9.327-8.441-10.699-1.191-21.527-1.934-32.309-1.928-10.782-0.006-21.611 0.737-32.311 1.928-4.517 0.503-8.269 3.871-9.324 8.441-1.501 6.506-1.52 13.607-1.52 20.307 0 6.699 0 13.8 1.502 20.307 1.056 4.566 4.808 7.938 9.325 8.438 10.699 1.191 21.527 1.934 32.31 1.929 10.782 0.005 21.611-0.737 32.309-1.929 4.518-0.501 8.271-3.872 9.327-8.438 1.501-6.507 1.512-13.608 1.512-20.307C93.142 43.302 93.15 36.2 91.648 29.694M64.711 51.988l-20.34 10.997c-2.022 1.094-3.677 0.107-3.677-2.191V39.207c0-2.299 1.654-3.286 3.677-2.192l20.34 10.998C66.734 49.105 66.734 50.895 64.711 51.988" fill="#ffd300" data-fill-palette-color="accent"></path></g></svg></g></svg></g><g></g></svg></g></svg></g><path d="M6.514 104.083v0c-0.015-0.062-0.03-0.167-0.046-0.316-0.015-0.148-0.029-0.321-0.043-0.518-0.013-0.198-0.029-0.41-0.046-0.638-0.018-0.228-0.035-0.455-0.052-0.683v0l-0.096-1.749c-0.013-0.133-0.004-0.248 0.028-0.345v0c0.024-0.071 0.069-0.142 0.135-0.212 0.066-0.071 0.173-0.143 0.319-0.217v0l6.976-1.099-0.168-0.141-2-2.124c-0.245-0.275-0.489-0.542-0.733-0.801-0.237-0.257-0.45-0.489-0.639-0.695-0.189-0.206-0.34-0.377-0.452-0.514-0.112-0.137-0.165-0.216-0.158-0.235v0l0.373-4.942c0.008-0.112 0.024-0.203 0.048-0.274v0c0.068-0.206 0.196-0.278 0.383-0.217v0c0.043 0.021 0.098 0.05 0.164 0.087 0.075 0.032 0.15 0.086 0.226 0.161v0l5.953 6.321c0.303 0.315 0.602 0.633 0.897 0.952 0.295 0.32 0.575 0.627 0.842 0.923 0.26 0.294 0.499 0.555 0.717 0.785 0.222 0.238 0.401 0.43 0.538 0.576v0l0.403 0.241 4.743 2.4c0.146 0.077 0.264 0.141 0.354 0.192 0.092 0.045 0.166 0.094 0.22 0.148 0.047 0.051 0.085 0.11 0.113 0.177 0.03 0.06 0.053 0.143 0.068 0.248v0l0.728 4.438c0.024 0.165 0.033 0.333 0.026 0.503-0.006 0.17-0.033 0.325-0.079 0.467v0c-0.051 0.155-0.126 0.273-0.225 0.355-0.107 0.086-0.235 0.105-0.384 0.055v0l-0.058-0.019c-0.49-0.205-1.055-0.464-1.695-0.777-0.638-0.319-1.259-0.636-1.864-0.951v0l-4.694-2.383c-0.35 0.041-0.811 0.092-1.381 0.153-0.573 0.067-1.191 0.138-1.852 0.212-0.67 0.078-1.358 0.158-2.065 0.238-0.709 0.087-1.375 0.166-2 0.239-0.633 0.076-1.193 0.145-1.678 0.205-0.485 0.061-0.841 0.108-1.066 0.14v0c-0.144 0.002-0.29-0.021-0.439-0.07v0c-0.077-0.026-0.15-0.064-0.219-0.116-0.064-0.043-0.105-0.103-0.122-0.18zM30.838 93.353l-0.056-0.026c-0.592-0.335-1.167-0.662-1.722-0.98-0.556-0.318-1.096-0.621-1.62-0.909v0l-5.757-3.311c-0.43-0.265-0.825-0.503-1.184-0.712-0.356-0.215-0.711-0.418-1.064-0.609-0.35-0.197-0.701-0.391-1.054-0.582-0.356-0.2-0.752-0.419-1.188-0.658v0c-0.147 0.276-0.293 0.567-0.439 0.874-0.146 0.306-0.3 0.628-0.461 0.966v0l-1.167 2.445c-0.044 0.092-0.105 0.134-0.184 0.127-0.082-0.017-0.154-0.04-0.216-0.069v0l-0.083-0.04-2.996-3.134-0.06-0.017c-0.043-0.02-0.063-0.064-0.061-0.132-0.004-0.07 0.031-0.207 0.106-0.412v0c0.488-1.197 0.962-2.355 1.421-3.475 0.453-1.123 0.91-2.23 1.37-3.32 0.463-1.096 0.924-2.189 1.384-3.278 0.454-1.093 0.928-2.213 1.424-3.362v0c0.05-0.104 0.116-0.204 0.2-0.3 0.08-0.105 0.2-0.119 0.359-0.043v0c0.018 0.009 0.032 0.019 0.041 0.031 0.013 0.021 0.028 0.036 0.047 0.045v0c0.279 0.299 0.548 0.578 0.808 0.837 0.257 0.266 0.512 0.527 0.766 0.784 0.248 0.254 0.501 0.51 0.762 0.769 0.257 0.266 0.528 0.549 0.813 0.851v0c0.003 0.009 0.036 0.043 0.097 0.103 0.053 0.063 0.113 0.141 0.182 0.234 0.062 0.09 0.113 0.197 0.152 0.32 0.033 0.121 0.026 0.246-0.021 0.374v0c-0.033 0.037-0.059 0.077-0.079 0.12-0.02 0.043-0.042 0.089-0.066 0.138v0l-1.615 3.384c0.409 0.248 0.846 0.505 1.313 0.773 0.461 0.265 0.909 0.532 1.345 0.8v0l9.44 5.645c0.071 0.041 0.14 0.093 0.208 0.156 0.065 0.053 0.094 0.135 0.087 0.244v0l-0.424 4.2c-0.013 0.107-0.029 0.25-0.047 0.429-0.024 0.177-0.07 0.335-0.137 0.477v0c-0.056 0.116-0.136 0.206-0.241 0.268-0.096 0.059-0.224 0.051-0.383-0.025zM33.059 51.38l10.658 16.816c0.072 0.11 0.14 0.213 0.204 0.31 0.07 0.1 0.124 0.206 0.162 0.316 0.036 0.101 0.055 0.215 0.056 0.342 0.005 0.121-0.017 0.256-0.065 0.404v0c-0.19 0.591-0.399 1.16-0.626 1.709-0.231 0.554-0.438 1.128-0.623 1.722v0c-0.036 0.108-0.069 0.201-0.1 0.279-0.035 0.084-0.074 0.156-0.118 0.217v0c-0.099 0.138-0.206 0.211-0.322 0.22-0.11 0.013-0.227-0.004-0.351-0.052v0l-18.295-7.237c-0.242-0.082-0.427-0.169-0.553-0.26v0c-0.165-0.119-0.266-0.27-0.301-0.455-0.031-0.19 0.003-0.429 0.102-0.717 0.099-0.289 0.252-0.642 0.461-1.061 0.213-0.424 0.477-0.937 0.792-1.538v0c0.152-0.292 0.285-0.536 0.399-0.73 0.109-0.198 0.209-0.36 0.299-0.487v0c0.159-0.221 0.299-0.341 0.423-0.361 0.123-0.02 0.284-0.005 0.482 0.045v0l10.969 4.583-6.439-9.281c-0.09-0.131-0.161-0.241-0.215-0.33-0.053-0.089-0.072-0.202-0.056-0.341 0.012-0.133 0.057-0.318 0.136-0.555 0.084-0.233 0.218-0.559 0.402-0.978v0c0.287-0.655 0.54-1.188 0.76-1.599 0.21-0.409 0.399-0.73 0.565-0.961v0c0.206-0.287 0.374-0.451 0.503-0.491 0.135-0.037 0.266-0.009 0.393 0.081v0c0.059 0.034 0.106 0.085 0.142 0.152 0.041 0.071 0.093 0.15 0.156 0.238zM49.317 63.585v0l-6.721-6.885c-2.248-2.307-3.901-4-4.959-5.081-1.053-1.086-1.574-1.624-1.563-1.614v0c-0.123-0.118-0.222-0.215-0.3-0.292-0.077-0.087-0.135-0.165-0.173-0.235-0.038-0.07-0.056-0.136-0.055-0.199 0.006-0.058 0.033-0.13 0.081-0.214v0l2.343-4.401c0.05-0.119 0.118-0.226 0.204-0.323v0c0.086-0.097 0.175-0.136 0.267-0.117 0.093 0.018 0.23 0.109 0.414 0.27v0c0.392 0.428 0.762 0.824 1.111 1.188 0.359 0.363 0.7 0.705 1.023 1.027 0.332 0.321 0.649 0.629 0.951 0.924 0.307 0.299 0.609 0.598 0.907 0.897v0c0.305 0.342 0.617 0.682 0.935 1.018 0.309 0.337 0.638 0.683 0.987 1.036 0.339 0.355 0.699 0.727 1.079 1.118 0.385 0.395 0.801 0.827 1.248 1.295v0l5.12 5.359c0.062 0.064 0.111 0.13 0.149 0.201 0.048 0.069 0.055 0.158 0.024 0.265v0c-0.009 0.01-0.032 0.067-0.069 0.17-0.042 0.099-0.096 0.232-0.164 0.4-0.067 0.168-0.149 0.358-0.246 0.571-0.103 0.208-0.214 0.427-0.335 0.655v0c-0.213 0.374-0.387 0.709-0.523 1.007-0.136 0.297-0.254 0.564-0.356 0.801-0.106 0.233-0.209 0.441-0.308 0.625-0.099 0.184-0.217 0.352-0.351 0.505v0c-0.095 0.107-0.201 0.171-0.321 0.193-0.119 0.022-0.252-0.033-0.399-0.164zM57.427 55.773l-1.916 1.693c-0.09 0.052-0.182 0.061-0.276 0.026-0.084-0.034-0.16-0.089-0.228-0.166v0c-0.054-0.061-0.091-0.128-0.11-0.201v0l-0.895-3.614c-0.012-0.034-0.094-0.153-0.245-0.354-0.15-0.211-0.339-0.466-0.566-0.764-0.231-0.303-0.489-0.641-0.774-1.015-0.285-0.374-0.565-0.742-0.841-1.106-0.275-0.373-0.54-0.724-0.793-1.053-0.249-0.333-0.455-0.613-0.619-0.839v0c-0.066-0.096-0.171-0.234-0.314-0.417-0.133-0.181-0.291-0.391-0.473-0.628-0.187-0.243-0.383-0.5-0.587-0.773-0.209-0.278-0.418-0.555-0.627-0.832v0l-1.797-2.328c-0.152 0.207-0.31 0.423-0.473 0.649-0.163 0.226-0.326 0.442-0.488 0.649-0.157 0.202-0.311 0.392-0.461 0.57-0.155 0.173-0.296 0.316-0.424 0.428v0c-0.076 0.067-0.162 0.084-0.255 0.049-0.104-0.035-0.189-0.091-0.257-0.167v0c-0.081-0.092-0.119-0.176-0.114-0.253v0l0.467-4.857c0.048-0.387 0.125-0.736 0.231-1.046 0.106-0.311 0.278-0.635 0.515-0.971 0.237-0.337 0.564-0.711 0.979-1.123 0.415-0.412 0.959-0.915 1.631-1.508v0c1.15-1.016 2.277-1.798 3.379-2.346 1.102-0.547 2.157-0.872 3.164-0.972v0c0.732-0.085 1.429-0.116 2.091-0.094 0.662 0.031 1.3 0.148 1.913 0.349 0.613 0.202 1.203 0.496 1.771 0.882 0.568 0.386 1.13 0.895 1.688 1.527v0c1.061 1.201 1.825 2.425 2.291 3.671 0.461 1.251 0.692 2.497 0.692 3.738 0 1.241-0.199 2.468-0.597 3.68-0.392 1.207-0.924 2.375-1.596 3.503-0.671 1.128-1.448 2.198-2.328 3.211-0.876 1.019-1.796 1.953-2.758 2.802zM50.439 39.411v0l1.004 1.383c0.346 0.474 0.718 0.983 1.118 1.528 0.395 0.539 0.796 1.086 1.204 1.641 0.418 0.555 0.827 1.1 1.226 1.635 0.4 0.535 0.775 1.037 1.127 1.506 0.346 0.464 0.657 0.883 0.932 1.256 0.276 0.364 0.493 0.656 0.653 0.877v0l0.246 0.34c0.845-0.746 1.441-1.513 1.788-2.299 0.343-0.792 0.486-1.589 0.43-2.391-0.066-0.803-0.298-1.599-0.696-2.389-0.408-0.79-0.94-1.557-1.597-2.3v0c-0.472-0.534-1-0.983-1.583-1.347-0.584-0.363-1.213-0.645-1.889-0.846v0c-0.676-0.201-1.316-0.233-1.921-0.098-0.605 0.136-1.162 0.428-1.671 0.878v0c-0.087 0.076-0.16 0.178-0.221 0.304-0.065 0.121-0.115 0.229-0.15 0.322zM74.285 27.485v0c0.045 0.133 0.089 0.326 0.132 0.582 0.043 0.255 0.088 0.545 0.135 0.87 0.047 0.325 0.097 0.672 0.15 1.042 0.052 0.37 0.109 0.741 0.171 1.113v0c0.028 0.144 0.038 0.254 0.031 0.331-0.007 0.077-0.046 0.155-0.117 0.233-0.071 0.078-0.184 0.167-0.337 0.266-0.151 0.105-0.359 0.251-0.626 0.439v0l-1.615 1.087 1.986 3.822 6.049-3.891 0.298 0.463c-0.004 0.019-0.004 0.164 0.001 0.435 0.005 0.271 0.017 0.591 0.035 0.958 0.009 0.366 0.016 0.741 0.021 1.125 0.001 0.379-0.005 0.689-0.018 0.933v0c0.012 0.194-0.006 0.367-0.054 0.519-0.051 0.146-0.124 0.278-0.218 0.394-0.094 0.117-0.214 0.226-0.359 0.328-0.135 0.103-0.289 0.21-0.46 0.32v0c-0.708 0.456-1.459 0.914-2.252 1.376-0.784 0.464-1.572 0.914-2.365 1.352-0.795 0.447-1.573 0.875-2.335 1.284-0.772 0.407-1.486 0.778-2.144 1.112v0c-0.061 0.031-0.132 0.033-0.214 0.005-0.073-0.026-0.133-0.076-0.182-0.15v0c-0.034 0.022-0.057-0.057-0.066-0.236-0.005-0.183-0.011-0.425-0.02-0.726-0.005-0.296-0.01-0.631-0.017-1.007-0.016-0.377-0.039-0.75-0.066-1.12v0l-1.52-2.777c-0.258-0.464-0.447-0.815-0.568-1.052-0.122-0.228-0.189-0.351-0.2-0.368v0c-0.472 0.296-0.838 0.499-1.098 0.609-0.254 0.107-0.425 0.092-0.513-0.045v0c-0.04-0.063-0.061-0.215-0.064-0.456 0.004-0.245 0.017-0.532 0.04-0.861 0.019-0.335 0.045-0.683 0.079-1.044 0.025-0.363 0.042-0.693 0.053-0.991v0l-2.287-4.197-0.035 0.022c-0.168 0.116-0.321 0.223-0.46 0.32-0.139 0.098-0.266 0.183-0.38 0.257v0c-0.383 0.246-0.669 0.398-0.858 0.455-0.186 0.063-0.317 0.034-0.394-0.086v0c-0.037-0.057-0.062-0.203-0.075-0.436-0.019-0.23-0.028-0.503-0.029-0.818-0.004-0.32-0.008-0.653-0.012-0.997 0.002-0.348-0.004-0.672-0.018-0.97v0l-0.069-1.651 4.935-3.174 5.542-4.171c0.006-0.004 0.028-0.014 0.066-0.03 0.038-0.016 0.082-0.029 0.133-0.037 0.055-0.003 0.114 0.008 0.178 0.031 0.064 0.024 0.123 0.078 0.178 0.164v0l0.225 0.727c0.053 0.208 0.102 0.435 0.147 0.681 0.051 0.242 0.094 0.497 0.129 0.765v0l0.362 1.693c0.031 0.174 0.032 0.319 0.002 0.435-0.024 0.113-0.147 0.248-0.369 0.407v0c-0.583 0.399-1.232 0.853-1.946 1.361-0.715 0.508-1.537 1.081-2.467 1.72v0c0.039 0.136 0.079 0.236 0.119 0.298 0.044 0.069 0.118 0.203 0.222 0.402v0l0.288 0.579c0.154 0.264 0.306 0.55 0.455 0.858 0.159 0.31 0.35 0.695 0.574 1.156v0c0.395-0.278 0.775-0.547 1.141-0.806 0.372-0.263 0.711-0.502 1.017-0.715 0.307-0.213 0.575-0.398 0.806-0.555 0.225-0.153 0.386-0.26 0.483-0.323v0c0.063-0.04 0.149-0.063 0.258-0.069 0.109-0.006 0.208 0.06 0.297 0.197v0c0.04 0.063 0.07 0.141 0.089 0.233zM83.955 25.086v0c0.279 0.612 0.628 1.195 1.046 1.751 0.412 0.559 0.885 1.014 1.42 1.368 0.528 0.356 1.112 0.571 1.75 0.645 0.648 0.078 1.339-0.051 2.074-0.387v0c0.558-0.299 1.004-0.645 1.341-1.038 0.339-0.401 0.592-0.83 0.756-1.286 0.162-0.462 0.251-0.947 0.266-1.454 0.018-0.501-0.016-1.008-0.101-1.521-0.091-0.511-0.224-1.014-0.398-1.51-0.168-0.498-0.352-0.967-0.552-1.405v0c-0.276-0.605-0.625-1.156-1.045-1.651-0.417-0.489-0.89-0.878-1.418-1.167-0.519-0.286-1.078-0.448-1.678-0.487-0.603-0.046-1.223 0.077-1.86 0.367v0c-0.5 0.228-0.909 0.527-1.226 0.896-0.323 0.372-0.57 0.787-0.741 1.246-0.174 0.453-0.281 0.931-0.32 1.433-0.042 0.512-0.04 1.015 0.006 1.509 0.049 0.5 0.134 0.98 0.255 1.441 0.13 0.463 0.271 0.88 0.425 1.25zM90.726 33.316v0c-1.279 0.584-2.529 0.863-3.75 0.839-1.224-0.016-2.367-0.27-3.428-0.764-1.064-0.5-2.024-1.196-2.88-2.089-0.859-0.899-1.56-1.945-2.105-3.138v0c-0.609-1.334-0.982-2.65-1.119-3.946-0.133-1.305-0.059-2.549 0.223-3.73 0.282-1.181 0.755-2.286 1.421-3.314 0.665-1.028 1.494-1.944 2.486-2.748v0c0.105-0.048 0.146-0.164 0.121-0.347-0.018-0.186-0.05-0.388-0.097-0.605-0.047-0.217-0.076-0.421-0.088-0.609-0.018-0.186 0.029-0.304 0.14-0.355v0c1.728-0.58 3.347-0.968 4.855-1.165 1.505-0.187 2.892-0.108 4.163 0.239 1.27 0.346 2.416 0.991 3.437 1.935 1.024 0.951 1.92 2.267 2.687 3.947v0c0.494 1.081 0.825 2.158 0.994 3.231 0.175 1.07 0.205 2.116 0.09 3.139-0.106 1.026-0.349 2.007-0.729 2.942-0.377 0.941-0.873 1.817-1.487 2.628-0.612 0.817-1.334 1.558-2.167 2.221-0.832 0.664-1.754 1.227-2.767 1.69zM110.553 26.18l-2.502 0.525c-0.104 0.001-0.188-0.037-0.253-0.113-0.057-0.071-0.095-0.157-0.116-0.257v0c-0.017-0.08-0.015-0.156 0.004-0.23v0l1.007-3.584c0.006-0.036-0.006-0.179-0.038-0.429-0.026-0.258-0.065-0.573-0.115-0.944-0.051-0.378-0.109-0.799-0.172-1.265-0.063-0.466-0.125-0.925-0.184-1.377-0.055-0.46-0.112-0.896-0.17-1.307-0.052-0.412-0.093-0.758-0.124-1.036v0c-0.01-0.116-0.033-0.288-0.067-0.516-0.026-0.224-0.06-0.484-0.101-0.781-0.043-0.303-0.086-0.624-0.129-0.961-0.045-0.345-0.089-0.689-0.133-1.034v0l-0.413-2.911c-0.235 0.105-0.479 0.215-0.732 0.33-0.253 0.116-0.501 0.223-0.745 0.323-0.236 0.098-0.464 0.187-0.682 0.268-0.22 0.074-0.414 0.128-0.58 0.163v0c-0.1 0.021-0.182-0.007-0.247-0.083-0.073-0.082-0.119-0.173-0.14-0.273v0c-0.025-0.12-0.017-0.212 0.025-0.276v0l2.806-3.992c0.233-0.313 0.472-0.578 0.718-0.796 0.246-0.218 0.555-0.415 0.927-0.59 0.373-0.175 0.841-0.34 1.406-0.492 0.565-0.153 1.286-0.322 2.163-0.506v0c1.502-0.315 2.868-0.438 4.096-0.37 1.229 0.068 2.306 0.307 3.232 0.717v0c0.678 0.288 1.3 0.605 1.865 0.951 0.56 0.354 1.057 0.771 1.49 1.249 0.433 0.478 0.801 1.025 1.104 1.642 0.303 0.617 0.541 1.337 0.714 2.161v0c0.329 1.569 0.389 3.01 0.178 4.324-0.217 1.315-0.632 2.513-1.245 3.592-0.613 1.079-1.392 2.048-2.336 2.905-0.938 0.856-1.977 1.608-3.118 2.256-1.141 0.649-2.344 1.196-3.611 1.643-1.265 0.453-2.526 0.811-3.782 1.074zM112.559 8.502v0l0.19 1.698c0.067 0.583 0.139 1.209 0.217 1.88 0.077 0.664 0.156 1.338 0.237 2.022 0.089 0.689 0.175 1.365 0.259 2.027 0.083 0.663 0.162 1.284 0.235 1.866 0.072 0.575 0.135 1.092 0.191 1.553 0.06 0.452 0.105 0.814 0.134 1.085v0l0.045 0.417c1.103-0.231 2-0.603 2.691-1.116 0.689-0.519 1.207-1.141 1.555-1.866 0.339-0.73 0.531-1.537 0.575-2.421 0.036-0.889-0.048-1.818-0.252-2.789v0c-0.146-0.698-0.384-1.349-0.712-1.953-0.328-0.604-0.736-1.161-1.224-1.669v0c-0.488-0.508-1.029-0.853-1.622-1.034-0.593-0.181-1.222-0.202-1.887-0.062v0c-0.113 0.024-0.227 0.075-0.342 0.155-0.117 0.073-0.213 0.142-0.29 0.207zM132.862 12.499v0c0.023 0.672 0.122 1.345 0.294 2.018 0.166 0.674 0.428 1.276 0.787 1.807 0.351 0.531 0.808 0.954 1.369 1.268 0.568 0.32 1.256 0.466 2.064 0.438v0c0.63-0.063 1.175-0.211 1.636-0.445 0.467-0.241 0.865-0.54 1.192-0.897 0.327-0.365 0.595-0.778 0.803-1.241 0.208-0.456 0.372-0.937 0.49-1.445 0.111-0.507 0.182-1.022 0.211-1.546 0.036-0.525 0.046-1.028 0.029-1.51v0c-0.023-0.665-0.134-1.307-0.332-1.925-0.198-0.612-0.485-1.152-0.862-1.621-0.369-0.463-0.824-0.828-1.363-1.094-0.54-0.273-1.159-0.398-1.858-0.374v0c-0.55 0.019-1.042 0.138-1.476 0.357-0.441 0.219-0.828 0.508-1.162 0.866-0.334 0.351-0.616 0.752-0.845 1.202-0.236 0.457-0.427 0.922-0.574 1.396-0.146 0.481-0.252 0.957-0.317 1.428-0.058 0.478-0.087 0.917-0.086 1.318zM135.959 22.696v0c-1.405 0.049-2.666-0.172-3.785-0.663-1.125-0.484-2.082-1.157-2.873-2.02-0.791-0.869-1.411-1.881-1.859-3.034-0.448-1.16-0.695-2.395-0.741-3.705v0c-0.051-1.466 0.109-2.824 0.48-4.074 0.378-1.257 0.923-2.377 1.637-3.359 0.713-0.983 1.574-1.822 2.583-2.516 1.009-0.694 2.125-1.222 3.349-1.584v0c0.115-0.004 0.197-0.095 0.245-0.274 0.055-0.179 0.102-0.377 0.143-0.596 0.04-0.219 0.091-0.418 0.152-0.597 0.055-0.179 0.143-0.27 0.266-0.274v0c1.819 0.127 3.462 0.389 4.93 0.786 1.462 0.404 2.713 1.01 3.753 1.817 1.041 0.806 1.851 1.842 2.432 3.106 0.581 1.271 0.904 2.829 0.968 4.675v0c0.041 1.188-0.066 2.309-0.321 3.365-0.249 1.055-0.622 2.033-1.121 2.934-0.492 0.907-1.092 1.72-1.801 2.437-0.709 0.725-1.503 1.343-2.381 1.857-0.879 0.52-1.83 0.927-2.853 1.22-1.023 0.294-2.091 0.46-3.203 0.499zM166.283 14.564l4.112-8.442c0.073-0.16 0.145-0.29 0.215-0.389 0.077-0.098 0.217-0.155 0.419-0.172v0l4.232-0.298c0.02 0.003 0.045 0 0.074-0.009 0.028-0.003 0.052-0.002 0.072 0.001v0c0.127 0.02 0.206 0.091 0.235 0.212 0.037 0.116 0.048 0.224 0.032 0.325v0c-0.003 0.02-0.012 0.057-0.028 0.109-0.009 0.06-0.022 0.096-0.037 0.107v0l-8.458 16.538c-0.207 0.359-0.376 0.649-0.507 0.869-0.137 0.219-0.265 0.399-0.383 0.538-0.124 0.132-0.254 0.239-0.39 0.321-0.144 0.087-0.328 0.165-0.552 0.233-0.224 0.068-0.504 0.145-0.84 0.23-0.33 0.086-0.754 0.205-1.273 0.358v0c-0.181 0.061-0.316 0.085-0.403 0.071v0c-0.154-0.024-0.26-0.099-0.315-0.224-0.057-0.119-0.095-0.252-0.113-0.399v0l-1.057-8.816-3.915 5.658c-0.064 0.1-0.194 0.231-0.391 0.393-0.196 0.155-0.413 0.314-0.652 0.475-0.238 0.162-0.476 0.318-0.712 0.467-0.236 0.149-0.427 0.267-0.57 0.354v0c-0.137 0.082-0.28 0.166-0.432 0.252-0.15 0.08-0.302 0.149-0.455 0.208-0.147 0.06-0.288 0.106-0.424 0.14-0.129 0.035-0.251 0.043-0.364 0.025v0c-0.242-0.038-0.378-0.197-0.411-0.476v0l-2.415-19.802c-0.009-0.077-0.017-0.154-0.026-0.231-0.015-0.078-0.018-0.147-0.008-0.207v0c0.037-0.235 0.124-0.421 0.262-0.557 0.132-0.144 0.348-0.248 0.646-0.312 0.293-0.071 0.676-0.104 1.15-0.099 0.473 0.005 1.07 0.04 1.788 0.104v0c0.336 0.004 0.62 0.014 0.851 0.03 0.231 0.015 0.424 0.035 0.579 0.059v0c0.268 0.042 0.439 0.113 0.513 0.214 0.068 0.093 0.12 0.242 0.157 0.447v0l1.133 11.436 3.011-3.706-0.306-4.316c-0.026-0.231-0.023-0.402 0.009-0.514v0c0.032-0.208 0.113-0.371 0.241-0.488 0.134-0.11 0.335-0.185 0.602-0.226 0.275-0.046 0.626-0.067 1.051-0.063 0.433-0.001 0.961 0.006 1.585 0.021v0c0.275 0.002 0.511 0.008 0.708 0.018 0.198 0.01 0.364 0.026 0.498 0.046v0c0.282 0.044 0.466 0.117 0.554 0.221 0.088 0.096 0.141 0.242 0.158 0.437v0zM185.767 21.769l3.322-9.964c0.168-0.266 0.303-0.457 0.405-0.573 0.097-0.118 0.238-0.168 0.426-0.148v0l3.72 0.338c0.122-0.002 0.245 0.017 0.368 0.058v0c0.116 0.039 0.187 0.105 0.212 0.2 0.024 0.101-0.001 0.261-0.074 0.48v0c-0.122 0.195-0.276 0.506-0.46 0.931-0.18 0.434-0.367 0.908-0.561 1.423-0.193 0.515-0.381 1.036-0.564 1.563-0.183 0.526-0.338 0.983-0.467 1.369v0l-0.245 0.734c-0.185 0.554-0.391 1.151-0.618 1.791-0.223 0.649-0.452 1.303-0.686 1.962-0.234 0.659-0.469 1.311-0.706 1.956-0.234 0.638-0.452 1.238-0.654 1.801v0l-0.847 2.251c-0.019 0.037-0.035 0.074-0.048 0.113-0.011 0.032-0.023 0.068-0.036 0.106v0l-0.067 0.203c-0.049 0.148-0.088 0.275-0.116 0.38-0.034 0.103-0.064 0.193-0.09 0.271v0c-0.03 0.09-0.063 0.169-0.1 0.235-0.037 0.067-0.091 0.123-0.165 0.171-0.075 0.054-0.173 0.1-0.293 0.138-0.114 0.041-0.268 0.086-0.464 0.136v0c-0.112 0.034-0.29 0.075-0.534 0.122-0.241 0.056-0.511 0.116-0.812 0.181-0.296 0.073-0.607 0.145-0.931 0.215-0.316 0.067-0.605 0.128-0.867 0.184-0.268 0.054-0.484 0.1-0.647 0.139-0.161 0.032-0.242 0.048-0.242 0.048v0l-3.009-11.558-3.153 7.592c-0.03 0.069-0.072 0.141-0.126 0.216-0.045 0.071-0.123 0.113-0.235 0.126v0c-0.097 0.011-0.253 0.019-0.471 0.026-0.219 0.013-0.477 0.024-0.773 0.032-0.296 0.009-0.603 0.017-0.921 0.026-0.324 0.006-0.629 0.009-0.915 0.006-0.286-0.002-0.537-0.011-0.754-0.026-0.219-0.009-0.364-0.025-0.435-0.048v0c-0.135-0.045-0.233-0.117-0.293-0.216-0.067-0.101-0.069-0.245-0.006-0.431v0c0.46-1.078 0.965-2.252 1.517-3.521 0.548-1.278 1.105-2.585 1.672-3.921 0.561-1.338 1.118-2.677 1.672-4.017 0.548-1.342 1.059-2.618 1.533-3.827v0c0.013-0.039-0.002-0.176-0.045-0.413-0.043-0.236-0.097-0.494-0.161-0.773-0.056-0.283-0.104-0.547-0.145-0.789-0.041-0.243-0.052-0.393-0.032-0.451v0c0.019-0.058 0.07-0.102 0.151-0.132 0.084-0.037 0.217-0.071 0.4-0.103v0l4.216-0.828c0.026 0.009 0.067 0.015 0.123 0.019 0.047 0.009 0.09 0.019 0.129 0.033v0c0.097 0.032 0.171 0.068 0.222 0.106 0.049 0.045 0.087 0.136 0.113 0.274v0zM204.513 17.276v0c-0.106 0.198-0.245 0.44-0.417 0.725-0.172 0.286-0.355 0.586-0.549 0.899-0.197 0.319-0.396 0.637-0.598 0.954-0.206 0.323-0.395 0.619-0.567 0.89-0.172 0.271-0.319 0.505-0.44 0.703-0.112 0.195-0.183 0.322-0.213 0.383v0c-0.293 0.499-0.568 0.961-0.825 1.388-0.257 0.426-0.515 0.847-0.776 1.264-0.257 0.411-0.526 0.838-0.807 1.282-0.272 0.441-0.571 0.929-0.898 1.465-0.336 0.539-0.704 1.136-1.107 1.794-0.399 0.651-0.853 1.404-1.36 2.259v0l5.459 2.062c0.246 0.084 0.445 0.164 0.597 0.239v0c0.182 0.091 0.283 0.178 0.302 0.264 0.012 0.082-0.012 0.184-0.072 0.305v0c-0.009 0.018-0.024 0.041-0.046 0.069-0.021 0.027-0.068 0.076-0.14 0.146-0.07 0.064-0.171 0.161-0.305 0.292-0.136 0.137-0.32 0.323-0.55 0.558v0l-0.685 0.694c-0.23 0.219-0.438 0.416-0.623 0.59-0.188 0.18-0.377 0.317-0.568 0.411-0.194 0.101-0.402 0.153-0.624 0.157-0.222 0.004-0.475-0.05-0.761-0.162v0c-0.185-0.069-0.433-0.173-0.744-0.312-0.31-0.139-0.663-0.299-1.058-0.48-0.401-0.184-0.835-0.38-1.3-0.589-0.462-0.214-0.938-0.424-1.428-0.629v0c-0.48-0.223-0.96-0.45-1.437-0.679-0.484-0.233-0.94-0.451-1.368-0.657-0.429-0.205-0.826-0.391-1.191-0.557-0.362-0.172-0.664-0.311-0.908-0.417v0c-0.219-0.109-0.368-0.205-0.447-0.29-0.076-0.076-0.095-0.153-0.055-0.232v0c0.045-0.091 0.138-0.208 0.277-0.352 0.145-0.14 0.318-0.297 0.518-0.471 0.197-0.168 0.409-0.335 0.636-0.502 0.224-0.177 0.445-0.347 0.664-0.513v0l2.566-4.321c0.444-0.727 0.895-1.466 1.351-2.218 0.46-0.758 0.899-1.491 1.32-2.2v0l1.863-3.226c0.438-0.761 0.756-1.316 0.952-1.665 0.193-0.344 0.299-0.534 0.318-0.571v0c0.091-0.137 0.165-0.256 0.222-0.356 0.054-0.094 0.112-0.172 0.172-0.233 0.051-0.058 0.106-0.091 0.164-0.1 0.061-0.015 0.137-0.008 0.228 0.022v0l4.928 1.139c0.106 0.015 0.226 0.056 0.36 0.122v0c0.091 0.045 0.145 0.106 0.16 0.181 0.009 0.073-0.024 0.185-0.099 0.338v0c-0.006 0.012-0.02 0.032-0.041 0.059-0.021 0.027-0.038 0.053-0.05 0.078zM210.588 33.286v0c-0.379 0.556-0.697 1.156-0.956 1.801-0.265 0.642-0.41 1.282-0.435 1.923-0.031 0.636 0.087 1.247 0.354 1.832 0.269 0.594 0.737 1.119 1.405 1.574v0c0.545 0.322 1.072 0.525 1.582 0.609 0.519 0.083 1.016 0.076 1.492-0.019 0.479-0.101 0.94-0.276 1.381-0.525 0.438-0.244 0.854-0.536 1.25-0.875 0.39-0.343 0.751-0.717 1.085-1.122 0.339-0.402 0.645-0.802 0.916-1.2v0c0.375-0.55 0.665-1.133 0.871-1.748 0.202-0.61 0.29-1.216 0.265-1.817-0.024-0.592-0.175-1.155-0.452-1.689-0.273-0.54-0.699-1.006-1.277-1.4v0c-0.455-0.31-0.922-0.505-1.402-0.585-0.485-0.084-0.968-0.08-1.449 0.01-0.477 0.086-0.941 0.242-1.392 0.47-0.46 0.229-0.889 0.491-1.288 0.786-0.402 0.301-0.769 0.622-1.101 0.964-0.329 0.351-0.613 0.688-0.849 1.011zM207.053 43.34v0c-1.162-0.792-2.048-1.716-2.659-2.773-0.62-1.056-0.994-2.165-1.122-3.329-0.124-1.169-0.025-2.351 0.296-3.546 0.325-1.2 0.856-2.342 1.594-3.425v0c0.826-1.212 1.758-2.212 2.797-3.001 1.048-0.79 2.15-1.37 3.307-1.74 1.157-0.371 2.347-0.537 3.571-0.501 1.224 0.037 2.437 0.272 3.637 0.704v0c0.095 0.065 0.215 0.04 0.36-0.076 0.15-0.112 0.306-0.244 0.467-0.396 0.162-0.153 0.32-0.283 0.476-0.391 0.15-0.112 0.275-0.133 0.377-0.064v0c1.391 1.178 2.561 2.362 3.51 3.551 0.939 1.191 1.59 2.419 1.951 3.684 0.362 1.266 0.403 2.58 0.124 3.943-0.283 1.368-0.945 2.816-1.985 4.343v0c-0.669 0.982-1.419 1.823-2.249 2.522-0.825 0.704-1.704 1.271-2.64 1.703-0.933 0.441-1.898 0.741-2.894 0.9-1 0.165-2.006 0.194-3.018 0.088-1.016-0.101-2.023-0.335-3.022-0.703-0.998-0.368-1.958-0.866-2.878-1.493zM217.619 48.648v0c0.253-0.086 0.532-0.194 0.837-0.324 0.31-0.125 0.627-0.277 0.951-0.455v0l0.915-0.405c0.057-0.294 0.127-0.61 0.207-0.947 0.081-0.328 0.176-0.651 0.286-0.97 0.115-0.324 0.246-0.626 0.396-0.908 0.154-0.286 0.33-0.532 0.527-0.736v0c0.014-0.015 0.08 0.025 0.197 0.119 0.112 0.089 0.251 0.205 0.416 0.346 0.166 0.151 0.341 0.311 0.527 0.481 0.186 0.179 0.361 0.344 0.527 0.495 0.161 0.146 0.293 0.269 0.396 0.368 0.112 0.099 0.168 0.148 0.168 0.149v0c0.543-0.259 1.065-0.496 1.566-0.711 0.496-0.22 0.996-0.444 1.501-0.674 0.51-0.225 1.025-0.459 1.544-0.704 0.519-0.244 1.067-0.518 1.643-0.82v0c1.09-0.561 2.074-1.027 2.952-1.397 0.882-0.375 1.705-0.718 2.468-1.029v0c0.09-0.045 0.193-0.063 0.309-0.056 0.12 0.003 0.236 0.02 0.347 0.052 0.116 0.027 0.222 0.063 0.318 0.11 0.097 0.037 0.172 0.072 0.226 0.104v0c0.034 0.014 0.167 0.081 0.399 0.202 0.228 0.116 0.485 0.256 0.771 0.419 0.291 0.158 0.57 0.324 0.837 0.497 0.272 0.168 0.476 0.319 0.613 0.451v0l0.176 0.17c0.107 0.104 0.186 0.227 0.236 0.371 0.046 0.148 0.015 0.312-0.092 0.491v0c-0.475 1.137-1.004 2.373-1.587 3.708-0.578 1.331-1.26 2.754-2.045 4.271v0c-0.423 0.809-0.816 1.587-1.178 2.333-0.367 0.741-0.72 1.468-1.058 2.179-0.339 0.712-0.675 1.426-1.009 2.143-0.334 0.716-0.679 1.455-1.035 2.215v0c-0.177 0.301-0.303 0.553-0.377 0.755-0.073 0.203-0.121 0.369-0.142 0.5-0.027 0.135-0.039 0.236-0.039 0.303-0.004 0.072-0.024 0.128-0.062 0.167v0c-0.038 0.039-0.141 0.019-0.31-0.06v0l-2.848-1.392c-0.218-0.097-0.443-0.197-0.675-0.299-0.223-0.102-0.431-0.199-0.625-0.292-0.194-0.102-0.361-0.188-0.501-0.258-0.141-0.079-0.235-0.142-0.284-0.189v0l-0.059-0.057c-0.093-0.09-0.13-0.183-0.113-0.279 0.013-0.101 0.04-0.183 0.082-0.246v0c0.144-0.286 0.269-0.552 0.376-0.799 0.102-0.242 0.208-0.484 0.319-0.726 0.106-0.237 0.225-0.487 0.355-0.748 0.135-0.266 0.305-0.565 0.51-0.895v0c0.018-0.048 0.008-0.115-0.032-0.201-0.035-0.081-0.089-0.167-0.163-0.257-0.069-0.095-0.15-0.192-0.242-0.291-0.088-0.095-0.171-0.18-0.25-0.255v0c-0.259-0.25-0.469-0.448-0.629-0.595-0.161-0.146-0.305-0.276-0.432-0.389-0.122-0.118-0.242-0.229-0.359-0.332-0.112-0.099-0.249-0.226-0.41-0.382v0c-0.195-0.189-0.393-0.385-0.593-0.588-0.2-0.203-0.384-0.39-0.55-0.56v0l-0.55-0.574c-0.643 0.314-1.258 0.598-1.844 0.853-0.586 0.255-1.197 0.51-1.832 0.766v0c-0.067 0.04-0.141 0.053-0.222 0.039-0.082-0.013-0.15-0.045-0.204-0.097v0c-0.044-0.042-0.064-0.071-0.059-0.086v0c-0.428-0.867-0.75-1.627-0.968-2.281-0.227-0.654-0.401-1.252-0.52-1.792zM233.174 46.158v0c-0.737 0.44-1.42 0.829-2.048 1.166-0.633 0.333-1.195 0.625-1.685 0.879-0.495 0.249-0.917 0.455-1.265 0.619-0.343 0.169-0.602 0.306-0.778 0.41v0l-0.085 0.087c-0.042 0.044-0.071 0.068-0.085 0.074v0l2.417 2.336c0.243-0.398 0.486-0.806 0.728-1.222 0.238-0.422 0.495-0.854 0.771-1.296 0.276-0.451 0.58-0.927 0.912-1.427 0.328-0.505 0.7-1.047 1.118-1.626zM231.449 65.318l-1.55-2.033c-0.046-0.093-0.048-0.186-0.007-0.277 0.04-0.082 0.101-0.154 0.182-0.216v0c0.065-0.049 0.135-0.081 0.209-0.095v0l3.669-0.632c0.035-0.01 0.159-0.083 0.371-0.219 0.222-0.135 0.489-0.305 0.803-0.51 0.319-0.209 0.675-0.442 1.068-0.699 0.393-0.257 0.781-0.51 1.163-0.759 0.392-0.248 0.761-0.486 1.107-0.716 0.35-0.224 0.644-0.41 0.882-0.557v0c0.1-0.059 0.246-0.153 0.438-0.283 0.191-0.12 0.411-0.262 0.66-0.427 0.255-0.169 0.526-0.346 0.813-0.53 0.292-0.188 0.584-0.377 0.876-0.566v0l2.45-1.625c-0.196-0.167-0.4-0.34-0.613-0.518-0.213-0.179-0.417-0.357-0.612-0.533-0.19-0.171-0.369-0.338-0.535-0.501-0.162-0.167-0.294-0.318-0.397-0.454v0c-0.062-0.081-0.072-0.167-0.031-0.258 0.043-0.101 0.104-0.182 0.186-0.244v0c0.097-0.074 0.184-0.106 0.26-0.096v0l4.81 0.815c0.382 0.076 0.725 0.178 1.028 0.306 0.303 0.128 0.613 0.322 0.932 0.583 0.319 0.261 0.668 0.613 1.049 1.057 0.381 0.444 0.844 1.022 1.387 1.735v0c0.931 1.22 1.629 2.4 2.097 3.539 0.467 1.139 0.715 2.214 0.743 3.226v0c0.032 0.736 0.013 1.434-0.057 2.092-0.079 0.658-0.241 1.286-0.486 1.883-0.245 0.597-0.581 1.165-1.007 1.703-0.426 0.539-0.974 1.063-1.644 1.574v0c-1.274 0.972-2.55 1.646-3.827 2.021-1.281 0.37-2.54 0.511-3.778 0.422-1.238-0.089-2.447-0.376-3.627-0.86-1.176-0.478-2.302-1.093-3.379-1.843-1.076-0.751-2.088-1.602-3.036-2.553-0.953-0.947-1.819-1.931-2.597-2.952zM248.271 59.523v0l-1.451 0.902c-0.497 0.311-1.032 0.646-1.604 1.005-0.566 0.355-1.141 0.716-1.723 1.084-0.584 0.377-1.157 0.745-1.719 1.106-0.562 0.36-1.09 0.699-1.583 1.015-0.488 0.312-0.928 0.592-1.32 0.84-0.382 0.249-0.69 0.445-0.922 0.588v0l-0.357 0.221c0.684 0.896 1.405 1.546 2.165 1.948 0.765 0.399 1.55 0.599 2.354 0.601 0.805-0.008 1.616-0.182 2.433-0.523 0.818-0.35 1.621-0.826 2.409-1.427v0c0.567-0.432 1.053-0.927 1.457-1.483 0.404-0.556 0.731-1.164 0.98-1.823v0c0.249-0.659 0.327-1.296 0.235-1.909-0.092-0.613-0.344-1.19-0.756-1.73v0c-0.07-0.092-0.166-0.173-0.287-0.242-0.116-0.074-0.22-0.131-0.311-0.173zM258.456 84.162v0c-0.135 0.035-0.332 0.065-0.59 0.09-0.257 0.025-0.55 0.049-0.877 0.073-0.327 0.024-0.677 0.049-1.05 0.075-0.373 0.026-0.747 0.056-1.123 0.09v0c-0.145 0.017-0.256 0.02-0.332 0.008-0.076-0.012-0.151-0.057-0.224-0.133-0.073-0.076-0.153-0.195-0.241-0.356-0.094-0.158-0.225-0.376-0.393-0.656v0l-0.968-1.688-3.955 1.707 3.448 6.312-0.483 0.263c-0.018-0.005-0.163-0.015-0.434-0.029-0.271-0.014-0.591-0.026-0.959-0.034-0.365-0.017-0.74-0.037-1.123-0.06-0.378-0.026-0.687-0.054-0.929-0.084v0c-0.195-0.002-0.366-0.032-0.514-0.091-0.142-0.062-0.268-0.144-0.378-0.246-0.11-0.102-0.21-0.229-0.301-0.381-0.093-0.142-0.189-0.303-0.286-0.482v0c-0.404-0.739-0.807-1.521-1.211-2.345-0.406-0.815-0.799-1.633-1.179-2.456-0.389-0.825-0.76-1.632-1.114-2.421-0.351-0.799-0.67-1.538-0.955-2.217v0c-0.027-0.063-0.023-0.134 0.01-0.215 0.031-0.071 0.085-0.128 0.163-0.17v0c-0.02-0.036 0.06-0.052 0.239-0.05 0.183 0.009 0.425 0.02 0.726 0.033 0.295 0.017 0.63 0.035 1.005 0.055 0.377 0.011 0.751 0.015 1.122 0.014v0l2.879-1.317c0.481-0.224 0.845-0.388 1.09-0.491 0.236-0.106 0.363-0.164 0.382-0.173v0c-0.261-0.492-0.437-0.872-0.53-1.139-0.088-0.261-0.061-0.431 0.082-0.509v0c0.066-0.036 0.219-0.046 0.46-0.03 0.244 0.022 0.529 0.055 0.856 0.101 0.333 0.043 0.678 0.094 1.036 0.154 0.36 0.051 0.689 0.092 0.984 0.123v0l4.35-1.981-0.019-0.036c-0.104-0.176-0.199-0.336-0.287-0.482-0.087-0.146-0.164-0.278-0.228-0.397v0c-0.218-0.399-0.349-0.695-0.393-0.888-0.049-0.19-0.012-0.319 0.114-0.387v0c0.06-0.033 0.206-0.047 0.441-0.044 0.231-0.002 0.503 0.008 0.817 0.03 0.32 0.019 0.652 0.039 0.996 0.059 0.347 0.027 0.67 0.044 0.968 0.052v0l1.652 0.049 2.813 5.15 3.762 5.827c0.003 0.006 0.012 0.028 0.026 0.067 0.014 0.039 0.023 0.084 0.027 0.136-0.001 0.055-0.016 0.113-0.044 0.175-0.028 0.062-0.087 0.117-0.176 0.166v0l-0.741 0.172c-0.211 0.038-0.441 0.071-0.69 0.098-0.245 0.033-0.502 0.058-0.772 0.074v0l-1.714 0.24c-0.176 0.019-0.32 0.009-0.435-0.03-0.111-0.032-0.237-0.165-0.379-0.397v0c-0.356-0.61-0.762-1.29-1.218-2.039-0.456-0.749-0.969-1.611-1.539-2.583v0c-0.139 0.029-0.241 0.062-0.306 0.097-0.072 0.039-0.211 0.103-0.417 0.193v0l-0.598 0.245c-0.275 0.135-0.571 0.265-0.888 0.393-0.32 0.136-0.719 0.3-1.195 0.49v0c0.249 0.413 0.49 0.812 0.723 1.195 0.236 0.39 0.449 0.745 0.64 1.067 0.191 0.321 0.356 0.603 0.496 0.843 0.136 0.235 0.232 0.403 0.287 0.505v0c0.036 0.066 0.053 0.153 0.051 0.263-0.002 0.109-0.075 0.203-0.218 0.281v0c-0.066 0.036-0.145 0.06-0.239 0.072zM260.539 96.768l-7.521 2.076c-0.079 0.022-0.161 0.035-0.247 0.038-0.083 0.009-0.166-0.029-0.249-0.114v0c-0.025-0.027-0.152-0.175-0.383-0.444-0.224-0.271-0.483-0.585-0.775-0.94-0.298-0.353-0.594-0.699-0.887-1.039-0.296-0.346-0.521-0.61-0.676-0.792v0c-0.085-0.092-0.178-0.205-0.28-0.341-0.108-0.134-0.189-0.274-0.243-0.42v0c-0.047-0.127-0.056-0.247-0.026-0.36 0.024-0.11 0.119-0.197 0.284-0.259v0c0.388-0.145 0.745-0.267 1.071-0.366 0.332-0.102 0.68-0.199 1.043-0.291 0.362-0.099 0.761-0.204 1.198-0.317 0.441-0.121 0.96-0.274 1.557-0.461v0c0.793-0.245 1.556-0.472 2.29-0.68 0.732-0.215 1.492-0.44 2.281-0.676v0l2.321-0.659c0.372-0.11 0.755-0.22 1.148-0.33 0.391-0.117 0.795-0.239 1.212-0.365v0l1.648-0.452c0.019-0.007 0.019-0.036 0-0.087v0c-0.026-0.07-0.086-0.182-0.179-0.335-0.09-0.162-0.198-0.347-0.326-0.553-0.13-0.212-0.273-0.449-0.428-0.71-0.147-0.257-0.296-0.52-0.447-0.79v0c-0.026-0.07-0.036-0.146-0.03-0.228 0.002-0.073 0.025-0.118 0.069-0.134v0c0.038-0.014 0.07-0.015 0.097-0.004v0l4.506 0.744c0.286 0.437 0.588 0.915 0.905 1.435 0.315 0.513 0.636 1.075 0.965 1.684 0.326 0.603 0.652 1.254 0.978 1.951 0.325 0.698 0.639 1.451 0.94 2.259v0c0.32 0.917 0.559 1.839 0.716 2.766 0.161 0.918 0.176 1.783 0.043 2.594-0.13 0.817-0.444 1.55-0.941 2.199-0.504 0.652-1.255 1.164-2.254 1.536v0c-0.554 0.206-1.098 0.301-1.634 0.283-0.533-0.011-1.039-0.095-1.518-0.249-0.487-0.159-0.936-0.361-1.346-0.607-0.417-0.243-0.786-0.486-1.108-0.728-0.322-0.242-0.587-0.466-0.794-0.672-0.211-0.197-0.349-0.334-0.415-0.411v0c-0.019 0.007-0.039 0.022-0.059 0.044-0.021 0.022-0.061 0.07-0.121 0.143-0.06 0.073-0.141 0.176-0.244 0.308-0.103 0.133-0.247 0.31-0.432 0.531v0c-0.158 0.218-0.379 0.489-0.665 0.814-0.279 0.321-0.607 0.705-0.984 1.149-0.378 0.445-0.794 0.952-1.249 1.521-0.455 0.568-0.934 1.207-1.438 1.917v0c-0.079 0.196-0.098 0.399-0.056 0.608 0.046 0.2 0.096 0.385 0.152 0.552 0.055 0.168 0.098 0.311 0.128 0.431 0.03 0.119-0.003 0.197-0.099 0.232v0c-0.07 0.026-0.18-0.016-0.33-0.127-0.141-0.107-0.296-0.241-0.465-0.403-0.167-0.155-0.331-0.315-0.494-0.479-0.163-0.164-0.288-0.287-0.377-0.37v0c-0.189-0.176-0.373-0.358-0.551-0.545-0.181-0.193-0.38-0.398-0.599-0.614-0.214-0.225-0.46-0.466-0.738-0.725-0.278-0.259-0.601-0.552-0.969-0.878v0c-0.102-0.078-0.18-0.161-0.234-0.25-0.059-0.08-0.102-0.158-0.131-0.233v0c-0.059-0.159-0.072-0.31-0.038-0.454 0.034-0.143 0.087-0.272 0.16-0.386 0.077-0.123 0.162-0.227 0.253-0.312 0.089-0.091 0.163-0.166 0.221-0.223v0zM267.992 94.771l-5.779 1.558c0.166 0.445 0.454 0.867 0.863 1.265 0.409 0.398 0.865 0.725 1.366 0.98 0.51 0.259 1.038 0.432 1.584 0.518 0.553 0.084 1.062 0.039 1.527-0.134v0c1.266-0.472 1.616-1.469 1.049-2.99v0c-0.109-0.293-0.218-0.527-0.328-0.704-0.109-0.177-0.203-0.341-0.282-0.493zM26.219 174.008v0c0.049 0.041 0.124 0.116 0.225 0.225 0.101 0.11 0.215 0.24 0.344 0.391 0.129 0.151 0.268 0.312 0.418 0.484 0.15 0.172 0.3 0.344 0.45 0.516v0l1.122 1.345c0.09 0.099 0.151 0.197 0.184 0.293v0c0.024 0.071 0.03 0.155 0.019 0.251-0.011 0.097-0.053 0.218-0.127 0.364v0l-4.936 5.05 0.219 0.014 2.873 0.507c0.361 0.074 0.716 0.142 1.066 0.204 0.344 0.065 0.653 0.123 0.927 0.175 0.275 0.052 0.498 0.1 0.67 0.143 0.172 0.043 0.261 0.074 0.267 0.094v0l2.655 4.185c0.06 0.095 0.102 0.177 0.125 0.249v0c0.068 0.206 0.009 0.34-0.177 0.402v0c-0.047 0.009-0.108 0.018-0.184 0.029-0.079 0.019-0.172 0.021-0.277 0.006v0l-8.551-1.511c-0.432-0.072-0.861-0.147-1.288-0.227-0.427-0.08-0.836-0.159-1.227-0.237-0.384-0.08-0.732-0.147-1.043-0.202-0.32-0.058-0.579-0.105-0.777-0.139v0l-0.467 0.047-5.236 0.911c-0.163 0.026-0.296 0.045-0.399 0.057-0.101 0.019-0.189 0.023-0.265 0.012-0.069-0.013-0.134-0.038-0.196-0.074-0.06-0.03-0.128-0.083-0.203-0.158v0l-3.236-3.123c-0.118-0.118-0.225-0.247-0.321-0.387-0.096-0.14-0.168-0.281-0.216-0.423v0c-0.051-0.155-0.062-0.294-0.031-0.418 0.035-0.133 0.126-0.224 0.274-0.274v0l0.058-0.019c0.516-0.128 1.124-0.258 1.824-0.39 0.702-0.126 1.39-0.243 2.062-0.352v0l5.188-0.894c0.256-0.242 0.595-0.559 1.016-0.949 0.419-0.397 0.872-0.822 1.358-1.277 0.49-0.463 0.995-0.938 1.513-1.424 0.516-0.493 1.003-0.955 1.462-1.387 0.462-0.44 0.87-0.829 1.222-1.167 0.353-0.339 0.61-0.589 0.771-0.75v0c0.114-0.088 0.245-0.156 0.394-0.205v0c0.077-0.026 0.159-0.038 0.245-0.039 0.077-0.004 0.146 0.02 0.206 0.072zM14.932 198.864l0.055-0.027c0.633-0.25 1.248-0.49 1.845-0.722 0.597-0.232 1.172-0.461 1.726-0.688v0l6.195-2.393c0.477-0.167 0.91-0.325 1.298-0.472 0.391-0.142 0.772-0.29 1.143-0.444 0.373-0.148 0.745-0.299 1.116-0.454 0.379-0.151 0.799-0.321 1.258-0.51v0c-0.122-0.288-0.257-0.585-0.403-0.891-0.146-0.306-0.3-0.628-0.461-0.965v0l-1.167-2.446c-0.044-0.092-0.038-0.166 0.018-0.223 0.065-0.053 0.128-0.095 0.189-0.124v0l0.083-0.039 4.321-0.358 0.051-0.036c0.043-0.02 0.09-0.009 0.141 0.035 0.057 0.041 0.141 0.154 0.253 0.342v0c0.623 1.132 1.226 2.229 1.808 3.291 0.588 1.059 1.161 2.11 1.719 3.153 0.561 1.049 1.12 2.095 1.678 3.138 0.564 1.04 1.137 2.114 1.718 3.221v0c0.05 0.104 0.086 0.219 0.108 0.344 0.031 0.128-0.033 0.23-0.193 0.306v0c-0.018 0.009-0.035 0.013-0.05 0.013-0.024-0.003-0.046-0.001-0.064 0.008v0c-0.408 0.029-0.794 0.063-1.159 0.102-0.368 0.033-0.732 0.067-1.091 0.102-0.353 0.033-0.712 0.069-1.077 0.108-0.368 0.033-0.759 0.065-1.173 0.097v0c-0.009-0.003-0.056 0-0.142 0.011-0.082 0.002-0.181 0-0.296-0.005-0.109-0.008-0.224-0.036-0.345-0.084-0.115-0.051-0.207-0.134-0.277-0.251v0c-0.008-0.049-0.023-0.095-0.044-0.138-0.02-0.043-0.042-0.089-0.065-0.138v0l-1.615-3.383c-0.45 0.162-0.925 0.34-1.427 0.534-0.496 0.191-0.985 0.372-1.468 0.543v0l-10.326 3.788c-0.076 0.029-0.16 0.05-0.252 0.064-0.082 0.017-0.164-0.012-0.245-0.087v0l-2.998-2.971c-0.075-0.077-0.176-0.179-0.304-0.306-0.122-0.13-0.217-0.265-0.284-0.407v0c-0.056-0.116-0.075-0.235-0.057-0.356 0.014-0.112 0.101-0.206 0.26-0.282zM51.572 219.943l-19.338 4.739c-0.127 0.033-0.247 0.064-0.358 0.094-0.118 0.034-0.235 0.052-0.352 0.052-0.107 0.002-0.221-0.017-0.341-0.056-0.116-0.034-0.237-0.097-0.363-0.191v0c-0.499-0.369-0.972-0.748-1.419-1.137-0.451-0.395-0.929-0.775-1.434-1.14v0c-0.091-0.068-0.169-0.13-0.233-0.184-0.068-0.06-0.124-0.12-0.167-0.181v0c-0.099-0.138-0.135-0.263-0.107-0.375 0.023-0.108 0.076-0.214 0.162-0.317v0l12.694-15.03c0.155-0.203 0.296-0.351 0.423-0.442v0c0.165-0.119 0.341-0.166 0.527-0.14 0.19 0.031 0.405 0.139 0.647 0.325 0.242 0.186 0.528 0.444 0.859 0.776 0.334 0.337 0.736 0.751 1.205 1.241v0c0.229 0.237 0.417 0.441 0.564 0.61 0.153 0.166 0.275 0.313 0.366 0.44v0c0.159 0.221 0.228 0.393 0.208 0.516-0.02 0.123-0.086 0.271-0.197 0.442v0l-7.842 8.935 10.85-3.143c0.153-0.043 0.28-0.076 0.381-0.098 0.101-0.022 0.215-0.004 0.341 0.055 0.123 0.054 0.283 0.156 0.483 0.306 0.194 0.153 0.46 0.384 0.799 0.693v0c0.53 0.481 0.954 0.891 1.273 1.23 0.321 0.33 0.564 0.611 0.731 0.842v0c0.206 0.287 0.308 0.498 0.305 0.634-0.008 0.14-0.076 0.255-0.203 0.347v0c-0.051 0.045-0.114 0.074-0.189 0.085-0.08 0.016-0.172 0.04-0.275 0.072zM36.209 232.639v0l7.653-5.833c2.563-1.951 4.446-3.385 5.646-4.302 1.206-0.913 1.803-1.364 1.793-1.356v0c0.132-0.107 0.24-0.195 0.327-0.261 0.095-0.066 0.18-0.114 0.254-0.144 0.074-0.029 0.142-0.039 0.204-0.03 0.057 0.013 0.125 0.049 0.203 0.106v0l4.083 2.862c0.112 0.065 0.21 0.145 0.295 0.242v0c0.086 0.097 0.113 0.19 0.084 0.279-0.03 0.09-0.136 0.215-0.319 0.377v0c-0.473 0.337-0.911 0.656-1.314 0.959-0.404 0.312-0.785 0.609-1.144 0.89-0.359 0.291-0.703 0.568-1.033 0.832-0.334 0.268-0.668 0.532-1 0.79v0c-0.377 0.261-0.752 0.529-1.125 0.805-0.372 0.266-0.755 0.55-1.149 0.853-0.393 0.294-0.807 0.605-1.241 0.935-0.439 0.334-0.918 0.694-1.437 1.081v0l-5.943 4.429c-0.071 0.053-0.143 0.095-0.217 0.124-0.075 0.039-0.163 0.036-0.266-0.009v0c-0.009-0.01-0.063-0.04-0.161-0.089-0.093-0.054-0.219-0.124-0.377-0.211-0.158-0.087-0.337-0.191-0.536-0.314-0.194-0.127-0.398-0.265-0.61-0.413v0c-0.345-0.257-0.657-0.471-0.935-0.642-0.278-0.171-0.529-0.321-0.752-0.45-0.218-0.134-0.412-0.261-0.583-0.382-0.171-0.121-0.323-0.258-0.458-0.41v0c-0.095-0.107-0.145-0.221-0.153-0.342-0.007-0.121 0.063-0.246 0.211-0.376zM45.464 242.399l-1.916-1.693c-0.063-0.083-0.083-0.173-0.06-0.27 0.023-0.088 0.069-0.17 0.136-0.247v0c0.054-0.061 0.116-0.106 0.186-0.134v0l3.476-1.334c0.033-0.016 0.14-0.112 0.321-0.287 0.191-0.175 0.421-0.394 0.688-0.656 0.272-0.267 0.576-0.565 0.912-0.894 0.336-0.329 0.667-0.652 0.993-0.971 0.336-0.319 0.652-0.625 0.947-0.918 0.3-0.288 0.552-0.527 0.756-0.718v0c0.087-0.078 0.211-0.198 0.375-0.362 0.164-0.154 0.352-0.337 0.565-0.548 0.218-0.216 0.449-0.442 0.694-0.678 0.25-0.242 0.499-0.483 0.749-0.725v0l2.087-2.071c-0.224-0.126-0.459-0.255-0.703-0.389-0.244-0.134-0.479-0.269-0.703-0.404-0.22-0.131-0.427-0.26-0.623-0.387-0.191-0.132-0.35-0.255-0.478-0.368v0c-0.076-0.067-0.103-0.15-0.08-0.247 0.022-0.107 0.067-0.199 0.134-0.276v0c0.081-0.092 0.16-0.14 0.237-0.144v0l4.877-0.137c0.39 0 0.745 0.033 1.067 0.1 0.322 0.067 0.664 0.197 1.028 0.391 0.363 0.194 0.775 0.472 1.235 0.833 0.46 0.361 1.026 0.838 1.698 1.431v0c1.15 1.016 2.065 2.037 2.745 3.063 0.68 1.026 1.132 2.032 1.357 3.02v0c0.174 0.716 0.292 1.404 0.352 2.064 0.051 0.661 0.014 1.308-0.111 1.941-0.124 0.633-0.343 1.255-0.656 1.866-0.313 0.611-0.749 1.232-1.306 1.864v0c-1.061 1.201-2.181 2.11-3.36 2.727-1.184 0.612-2.392 0.995-3.624 1.149-1.232 0.153-2.474 0.108-3.725-0.137-1.247-0.24-2.471-0.624-3.673-1.15-1.202-0.527-2.36-1.165-3.475-1.914-1.119-0.744-2.16-1.54-3.122-2.39zM60.837 233.441v0l-1.249 1.167c-0.427 0.402-0.886 0.834-1.377 1.298-0.486 0.458-0.98 0.924-1.479 1.399-0.499 0.483-0.99 0.956-1.471 1.419-0.481 0.463-0.933 0.897-1.355 1.304-0.418 0.401-0.795 0.761-1.131 1.08-0.327 0.319-0.59 0.571-0.791 0.757v0l-0.307 0.286c0.845 0.746 1.679 1.243 2.503 1.49 0.828 0.242 1.637 0.286 2.426 0.131 0.788-0.164 1.55-0.493 2.285-0.986 0.734-0.503 1.429-1.126 2.085-1.869v0c0.472-0.534 0.852-1.114 1.141-1.738 0.288-0.624 0.49-1.284 0.606-1.979v0c0.116-0.695 0.069-1.335-0.141-1.918-0.209-0.584-0.569-1.1-1.078-1.55v0c-0.087-0.076-0.196-0.137-0.329-0.182-0.128-0.05-0.241-0.086-0.338-0.109zM77.9 251.521v0c-0.102 0.096-0.26 0.216-0.475 0.361-0.214 0.145-0.459 0.306-0.735 0.484-0.276 0.178-0.571 0.367-0.886 0.568-0.315 0.201-0.629 0.407-0.942 0.618v0c-0.119 0.085-0.215 0.14-0.289 0.165-0.073 0.026-0.16 0.022-0.26-0.009-0.1-0.032-0.228-0.098-0.382-0.198-0.158-0.093-0.378-0.223-0.659-0.387v0l-1.658-1.018-2.654 3.392 6.048 3.89-0.297 0.463c-0.019 0.004-0.151 0.065-0.396 0.182-0.245 0.117-0.531 0.26-0.857 0.429-0.329 0.16-0.667 0.322-1.015 0.486-0.344 0.158-0.629 0.282-0.856 0.37v0c-0.172 0.091-0.337 0.147-0.495 0.166-0.154 0.014-0.304 0.002-0.449-0.035-0.146-0.037-0.295-0.101-0.447-0.19-0.15-0.08-0.311-0.176-0.482-0.286v0c-0.708-0.456-1.437-0.948-2.186-1.479-0.747-0.521-1.484-1.051-2.211-1.591-0.736-0.538-1.448-1.069-2.137-1.593-0.691-0.533-1.324-1.029-1.901-1.489v0c-0.053-0.042-0.085-0.107-0.093-0.193-0.007-0.077 0.013-0.153 0.061-0.227v0c-0.034-0.022 0.028-0.075 0.187-0.159 0.164-0.08 0.382-0.186 0.653-0.318 0.267-0.127 0.57-0.271 0.908-0.434 0.336-0.171 0.667-0.346 0.992-0.524v0l1.897-2.535c0.315-0.427 0.556-0.745 0.722-0.953 0.157-0.206 0.241-0.318 0.251-0.335v0c-0.465-0.307-0.801-0.556-1.009-0.746-0.203-0.187-0.26-0.349-0.172-0.486v0c0.04-0.063 0.17-0.145 0.388-0.247 0.224-0.098 0.491-0.205 0.801-0.321 0.313-0.122 0.64-0.242 0.983-0.361 0.341-0.128 0.649-0.249 0.923-0.363v0l2.871-3.822-0.035-0.022c-0.175-0.104-0.336-0.2-0.482-0.286-0.146-0.086-0.277-0.166-0.391-0.239v0c-0.383-0.246-0.639-0.444-0.77-0.592-0.134-0.143-0.163-0.274-0.085-0.395v0c0.037-0.057 0.159-0.14 0.366-0.249 0.202-0.113 0.445-0.234 0.731-0.365 0.29-0.137 0.591-0.278 0.903-0.424 0.318-0.143 0.609-0.282 0.875-0.419v0l1.474-0.748 4.935 3.175 6.093 3.313c0.006 0.004 0.024 0.019 0.055 0.047 0.031 0.028 0.06 0.063 0.089 0.106 0.025 0.049 0.04 0.107 0.045 0.175 0.005 0.068-0.02 0.144-0.075 0.23v0l-0.568 0.506c-0.167 0.135-0.353 0.273-0.559 0.416-0.199 0.146-0.413 0.291-0.642 0.435v0l-1.391 1.031c-0.145 0.1-0.277 0.161-0.395 0.182-0.113 0.024-0.287-0.031-0.523-0.166v0c-0.605-0.365-1.287-0.767-2.046-1.207-0.759-0.44-1.622-0.95-2.588-1.532v0c-0.108 0.092-0.182 0.17-0.222 0.233-0.044 0.069-0.135 0.192-0.274 0.369v0l-0.407 0.501c-0.177 0.25-0.374 0.506-0.592 0.77-0.216 0.273-0.487 0.607-0.814 1.002v0c0.417 0.244 0.819 0.478 1.207 0.704 0.394 0.229 0.751 0.439 1.072 0.629 0.322 0.191 0.601 0.358 0.839 0.504 0.232 0.141 0.397 0.243 0.494 0.305v0c0.063 0.04 0.12 0.109 0.17 0.206 0.051 0.097 0.032 0.214-0.056 0.352v0c-0.04 0.063-0.099 0.122-0.175 0.178zM85.004 257.243v0c-0.279 0.612-0.492 1.257-0.638 1.937-0.152 0.677-0.187 1.333-0.104 1.968 0.077 0.632 0.297 1.214 0.659 1.746 0.366 0.54 0.916 0.978 1.651 1.313v0c0.591 0.225 1.145 0.336 1.662 0.334 0.526-0.006 1.015-0.097 1.468-0.271 0.456-0.18 0.88-0.431 1.272-0.751 0.39-0.315 0.751-0.672 1.084-1.073 0.326-0.404 0.619-0.833 0.88-1.29 0.267-0.453 0.5-0.899 0.7-1.337v0c0.276-0.605 0.464-1.229 0.563-1.871 0.096-0.636 0.081-1.247-0.046-1.835-0.124-0.579-0.367-1.108-0.731-1.588-0.361-0.486-0.859-0.874-1.495-1.165v0c-0.5-0.228-0.994-0.342-1.48-0.34-0.492-0.001-0.968 0.084-1.427 0.256-0.456 0.165-0.887 0.398-1.293 0.698-0.415 0.303-0.794 0.634-1.137 0.992-0.346 0.365-0.653 0.743-0.921 1.136-0.265 0.401-0.488 0.782-0.667 1.141zM83.219 267.749v0c-1.279-0.584-2.309-1.345-3.089-2.284-0.79-0.936-1.346-1.966-1.668-3.091-0.32-1.131-0.422-2.313-0.308-3.545 0.117-1.238 0.448-2.453 0.993-3.645v0c0.609-1.334 1.359-2.478 2.249-3.43 0.899-0.956 1.888-1.714 2.965-2.275 1.077-0.561 2.222-0.926 3.435-1.097 1.213-0.17 2.447-0.144 3.704 0.079v0c0.105 0.048 0.219 0.003 0.342-0.135 0.129-0.135 0.26-0.292 0.394-0.47 0.134-0.178 0.268-0.333 0.403-0.465 0.129-0.135 0.249-0.177 0.36-0.127v0c1.57 0.926 2.924 1.895 4.059 2.906 1.127 1.015 1.976 2.115 2.547 3.302 0.571 1.186 0.833 2.475 0.788 3.865-0.048 1.397-0.456 2.935-1.223 4.616v0c-0.494 1.081-1.091 2.037-1.79 2.867-0.694 0.833-1.465 1.541-2.314 2.124-0.845 0.592-1.745 1.051-2.7 1.376-0.958 0.332-1.945 0.531-2.961 0.597-1.019 0.072-2.051 0.012-3.097-0.183-1.046-0.194-2.076-0.522-3.089-0.985zM106.843 276.134l-2.502-0.525c-0.096-0.041-0.157-0.109-0.186-0.206-0.023-0.088-0.024-0.182-0.004-0.282v0c0.017-0.08 0.049-0.149 0.096-0.208v0l2.363-2.877c0.02-0.03 0.066-0.167 0.137-0.409 0.08-0.247 0.171-0.55 0.275-0.91 0.105-0.367 0.222-0.776 0.351-1.228 0.129-0.452 0.257-0.897 0.384-1.335 0.135-0.444 0.258-0.865 0.369-1.265 0.118-0.398 0.219-0.731 0.303-0.998v0c0.037-0.11 0.086-0.277 0.147-0.5 0.066-0.215 0.14-0.467 0.221-0.755 0.083-0.295 0.172-0.606 0.268-0.933 0.098-0.333 0.195-0.667 0.293-1v0l0.792-2.831c-0.257 0.002-0.525 0.004-0.803 0.008-0.278 0.004-0.549 0.003-0.811-0.004-0.256-0.005-0.5-0.015-0.733-0.028-0.232-0.021-0.43-0.049-0.597-0.084v0c-0.1-0.021-0.164-0.079-0.192-0.176-0.034-0.104-0.04-0.206-0.019-0.305v0c0.025-0.12 0.07-0.2 0.134-0.243v0l4.173-2.528c0.339-0.193 0.664-0.339 0.978-0.441 0.313-0.101 0.675-0.157 1.086-0.167 0.412-0.011 0.907 0.027 1.485 0.114 0.579 0.087 1.307 0.222 2.184 0.406v0c1.502 0.315 2.802 0.751 3.9 1.307 1.098 0.556 1.988 1.208 2.671 1.955v0c0.505 0.536 0.947 1.076 1.325 1.621 0.37 0.55 0.658 1.13 0.863 1.742 0.205 0.612 0.322 1.261 0.351 1.947 0.03 0.686-0.042 1.441-0.215 2.266v0c-0.329 1.569-0.854 2.912-1.574 4.031-0.727 1.117-1.588 2.047-2.583 2.789-0.995 0.742-2.098 1.316-3.307 1.721-1.203 0.407-2.456 0.678-3.762 0.814-1.305 0.136-2.627 0.153-3.966 0.053-1.34-0.094-2.639-0.272-3.895-0.536zM115.784 260.751v0l-0.509 1.632c-0.173 0.56-0.359 1.163-0.556 1.809-0.196 0.639-0.395 1.288-0.596 1.946-0.195 0.667-0.388 1.32-0.578 1.961-0.19 0.64-0.368 1.241-0.534 1.803-0.165 0.555-0.315 1.055-0.449 1.498-0.127 0.438-0.231 0.788-0.314 1.048v0l-0.126 0.401c1.103 0.231 2.074 0.251 2.913 0.059 0.84-0.199 1.564-0.56 2.174-1.085 0.604-0.532 1.104-1.194 1.499-1.986 0.39-0.8 0.686-1.684 0.89-2.654v0c0.146-0.698 0.191-1.389 0.133-2.075-0.058-0.685-0.208-1.359-0.45-2.02v0c-0.243-0.662-0.6-1.194-1.07-1.599-0.47-0.404-1.038-0.676-1.703-0.815v0c-0.113-0.024-0.238-0.022-0.376 0.005-0.136 0.02-0.252 0.044-0.348 0.072zM132.95 269.603v0c-0.023 0.672 0.028 1.35 0.153 2.034 0.119 0.684 0.339 1.303 0.659 1.858 0.314 0.555 0.74 1.008 1.278 1.359 0.545 0.359 1.221 0.552 2.028 0.58v0c0.633-0.019 1.187-0.129 1.663-0.329 0.483-0.207 0.9-0.478 1.252-0.813 0.352-0.341 0.647-0.735 0.887-1.182 0.24-0.44 0.436-0.909 0.589-1.406 0.146-0.498 0.253-1.007 0.318-1.528 0.072-0.521 0.117-1.022 0.134-1.504v0c0.023-0.665-0.043-1.313-0.197-1.944-0.155-0.624-0.404-1.183-0.747-1.677-0.336-0.487-0.764-0.883-1.284-1.187-0.519-0.31-1.128-0.478-1.827-0.502v0c-0.55-0.019-1.049 0.065-1.497 0.254-0.455 0.188-0.862 0.449-1.22 0.783-0.358 0.327-0.667 0.707-0.927 1.14-0.267 0.439-0.49 0.89-0.669 1.353-0.179 0.469-0.318 0.937-0.415 1.402-0.091 0.472-0.151 0.909-0.178 1.309zM135.33 279.991v0c-1.405-0.049-2.648-0.357-3.729-0.925-1.088-0.561-1.997-1.3-2.726-2.215-0.729-0.922-1.277-1.974-1.644-3.156-0.366-1.188-0.527-2.438-0.481-3.747v0c0.051-1.466 0.305-2.809 0.762-4.03 0.464-1.227 1.086-2.307 1.866-3.238 0.78-0.931 1.697-1.708 2.752-2.33 1.055-0.622 2.205-1.072 3.451-1.348v0c0.115 0.004 0.203-0.081 0.264-0.256 0.067-0.174 0.128-0.369 0.184-0.585 0.055-0.216 0.12-0.41 0.193-0.584 0.067-0.174 0.162-0.259 0.284-0.255v0c1.806 0.253 3.427 0.629 4.864 1.127 1.43 0.505 2.636 1.196 3.618 2.073 0.982 0.877 1.719 1.966 2.21 3.268 0.491 1.308 0.705 2.885 0.641 4.731v0c-0.041 1.188-0.226 2.299-0.555 3.334-0.321 1.035-0.762 1.985-1.322 2.849-0.554 0.871-1.209 1.64-1.966 2.307-0.757 0.674-1.592 1.236-2.505 1.686-0.913 0.457-1.89 0.797-2.931 1.02-1.041 0.222-2.118 0.314-3.23 0.274zM165.743 266.6l1.344-9.293c0.021-0.175 0.05-0.32 0.086-0.436 0.044-0.117 0.159-0.214 0.346-0.291v0l3.941-1.574c0.02-0.003 0.043-0.014 0.067-0.031 0.026-0.011 0.049-0.018 0.069-0.021v0c0.127-0.02 0.224 0.024 0.288 0.13 0.07 0.099 0.114 0.199 0.13 0.299v0c0.003 0.02 0.006 0.058 0.007 0.113 0.009 0.06 0.008 0.098-0.003 0.114v0l-3.016 18.328c-0.088 0.406-0.161 0.733-0.218 0.982-0.064 0.251-0.131 0.46-0.201 0.63-0.078 0.163-0.169 0.305-0.274 0.424-0.111 0.127-0.262 0.257-0.454 0.391-0.192 0.133-0.436 0.291-0.731 0.474-0.288 0.182-0.655 0.425-1.102 0.729v0c-0.154 0.113-0.275 0.177-0.362 0.191v0c-0.154 0.024-0.277-0.015-0.369-0.118-0.091-0.096-0.167-0.211-0.23-0.346v0l-3.693-8.073-2.004 6.581c-0.03 0.115-0.115 0.279-0.253 0.493-0.139 0.207-0.298 0.425-0.476 0.652-0.178 0.227-0.356 0.447-0.536 0.661-0.18 0.214-0.325 0.384-0.435 0.511v0c-0.105 0.119-0.216 0.243-0.334 0.372-0.118 0.122-0.242 0.234-0.371 0.336-0.122 0.101-0.242 0.189-0.361 0.263-0.112 0.073-0.226 0.118-0.339 0.135v0c-0.242 0.038-0.42-0.072-0.536-0.329v0l-8.335-18.124c-0.032-0.071-0.063-0.141-0.095-0.212-0.038-0.07-0.062-0.135-0.071-0.195v0c-0.037-0.235-0.01-0.438 0.08-0.61 0.082-0.178 0.256-0.342 0.521-0.494 0.257-0.157 0.612-0.305 1.064-0.444 0.453-0.139 1.031-0.288 1.735-0.446v0c0.321-0.098 0.595-0.175 0.82-0.231 0.225-0.056 0.415-0.096 0.569-0.12v0c0.268-0.042 0.453-0.026 0.554 0.047 0.093 0.068 0.188 0.194 0.285 0.379v0l4.564 10.546 1.74-4.447-1.607-4.018c-0.095-0.212-0.145-0.376-0.149-0.492v0c-0.032-0.208-0.005-0.388 0.081-0.538 0.094-0.145 0.262-0.278 0.505-0.399 0.248-0.128 0.575-0.255 0.982-0.38 0.412-0.133 0.917-0.288 1.515-0.463v0c0.262-0.082 0.489-0.148 0.681-0.199 0.191-0.051 0.354-0.086 0.488-0.107v0c0.282-0.044 0.48-0.03 0.594 0.041 0.113 0.065 0.208 0.187 0.285 0.368v0zM185.774 262.877l-3.321-9.964c-0.026-0.314-0.032-0.548-0.019-0.702 0.006-0.152 0.09-0.277 0.251-0.374v0l3.179-1.962c0.097-0.075 0.206-0.133 0.329-0.174v0c0.116-0.039 0.213-0.028 0.29 0.033 0.079 0.067 0.156 0.209 0.229 0.428v0c0.019 0.23 0.083 0.57 0.19 1.021 0.116 0.455 0.251 0.947 0.406 1.476 0.155 0.528 0.317 1.058 0.486 1.588 0.17 0.53 0.319 0.989 0.448 1.375v0l0.245 0.735c0.185 0.554 0.378 1.155 0.579 1.804 0.21 0.653 0.42 1.313 0.629 1.981 0.208 0.668 0.411 1.33 0.608 1.988 0.195 0.651 0.381 1.262 0.558 1.833v0l0.673 2.31c0.006 0.041 0.016 0.081 0.029 0.119 0.011 0.032 0.023 0.068 0.035 0.106v0l0.068 0.203c0.049 0.148 0.094 0.273 0.135 0.374 0.034 0.103 0.064 0.193 0.09 0.27v0c0.03 0.09 0.05 0.173 0.062 0.248 0.011 0.075 0.001 0.154-0.029 0.235-0.028 0.088-0.078 0.184-0.152 0.287-0.067 0.101-0.163 0.23-0.29 0.387v0c-0.069 0.094-0.187 0.234-0.354 0.419-0.159 0.189-0.339 0.399-0.541 0.631-0.193 0.236-0.398 0.48-0.616 0.731-0.213 0.243-0.407 0.465-0.583 0.667-0.183 0.204-0.328 0.37-0.435 0.499-0.11 0.122-0.164 0.184-0.164 0.184v0l-9.342-7.442 2.033 7.967c0.017 0.073 0.027 0.156 0.029 0.248 0.006 0.084-0.031 0.164-0.113 0.242v0c-0.071 0.067-0.191 0.168-0.361 0.302-0.168 0.142-0.367 0.305-0.599 0.49-0.232 0.185-0.472 0.376-0.722 0.573-0.256 0.2-0.498 0.384-0.728 0.555-0.23 0.17-0.436 0.314-0.618 0.431-0.18 0.125-0.306 0.199-0.377 0.222v0c-0.135 0.045-0.257 0.046-0.364 0.004-0.114-0.041-0.202-0.155-0.264-0.342v0c-0.279-1.138-0.579-2.381-0.899-3.727-0.329-1.351-0.667-2.731-1.015-4.139-0.354-1.407-0.712-2.812-1.072-4.217-0.367-1.402-0.724-2.73-1.07-3.982v0c-0.013-0.039-0.107-0.14-0.283-0.303-0.176-0.163-0.374-0.337-0.593-0.522-0.215-0.193-0.411-0.375-0.59-0.544-0.178-0.17-0.277-0.283-0.296-0.342v0c-0.019-0.058-0.005-0.123 0.042-0.196 0.045-0.079 0.131-0.187 0.258-0.322v0l2.876-3.193c0.026-0.009 0.062-0.028 0.11-0.058 0.043-0.021 0.084-0.039 0.122-0.051v0c0.097-0.032 0.177-0.048 0.242-0.049 0.067 0.006 0.151 0.057 0.254 0.152v0zM194.022 246.219v0c0.094 0.204 0.202 0.461 0.326 0.771 0.124 0.31 0.252 0.637 0.384 0.981 0.136 0.35 0.268 0.701 0.398 1.053 0.133 0.359 0.255 0.689 0.366 0.99 0.112 0.301 0.21 0.559 0.294 0.775 0.087 0.207 0.146 0.341 0.177 0.401v0c0.22 0.535 0.422 1.034 0.606 1.496 0.184 0.462 0.363 0.923 0.538 1.382 0.172 0.453 0.35 0.926 0.534 1.419 0.187 0.483 0.395 1.017 0.624 1.601 0.226 0.593 0.479 1.248 0.76 1.965 0.277 0.711 0.603 1.528 0.977 2.449v0l4.943-3.102c0.216-0.145 0.4-0.256 0.552-0.331v0c0.182-0.091 0.313-0.118 0.392-0.081 0.073 0.04 0.139 0.12 0.2 0.242v0c0.009 0.018 0.018 0.044 0.027 0.078 0.009 0.033 0.019 0.1 0.031 0.2 0.009 0.094 0.025 0.234 0.049 0.42 0.027 0.191 0.064 0.45 0.112 0.774v0l0.138 0.967c0.036 0.316 0.067 0.6 0.094 0.852 0.03 0.258 0.024 0.492-0.016 0.701-0.037 0.216-0.121 0.413-0.252 0.592-0.131 0.179-0.327 0.348-0.589 0.508v0c-0.167 0.106-0.4 0.24-0.699 0.404-0.298 0.163-0.639 0.347-1.022 0.553-0.389 0.208-0.808 0.435-1.254 0.68-0.45 0.239-0.905 0.491-1.365 0.757v0c-0.468 0.248-0.938 0.492-1.41 0.734-0.478 0.245-0.928 0.476-1.35 0.693-0.423 0.217-0.811 0.421-1.163 0.612-0.356 0.184-0.649 0.341-0.881 0.471v0c-0.219 0.109-0.386 0.169-0.502 0.181-0.106 0.015-0.179-0.017-0.218-0.096v0c-0.045-0.091-0.083-0.236-0.113-0.433-0.024-0.201-0.044-0.433-0.062-0.698-0.014-0.258-0.02-0.529-0.016-0.811-0.005-0.286-0.008-0.565-0.006-0.838v0l-1.892-4.657c-0.311-0.794-0.627-1.599-0.949-2.417-0.326-0.824-0.644-1.618-0.955-2.381v0l-1.444-3.434c-0.341-0.809-0.591-1.397-0.751-1.766-0.157-0.362-0.244-0.561-0.262-0.597v0c-0.054-0.155-0.104-0.286-0.15-0.392-0.042-0.1-0.069-0.193-0.081-0.278-0.015-0.076-0.009-0.14 0.019-0.192 0.024-0.058 0.076-0.114 0.155-0.168v0l3.886-3.237c0.076-0.076 0.181-0.147 0.315-0.213v0c0.091-0.045 0.172-0.051 0.242-0.018 0.064 0.037 0.133 0.131 0.208 0.283v0c0.006 0.012 0.014 0.035 0.023 0.068 0.009 0.033 0.02 0.062 0.032 0.087zM209.166 249.253v0c0.379 0.556 0.821 1.072 1.326 1.549 0.5 0.481 1.044 0.85 1.631 1.108 0.581 0.262 1.192 0.375 1.834 0.34 0.651-0.033 1.311-0.277 1.979-0.732v0c0.499-0.389 0.881-0.806 1.146-1.249 0.267-0.453 0.443-0.918 0.528-1.396 0.082-0.483 0.087-0.976 0.016-1.478-0.067-0.497-0.186-0.991-0.357-1.482-0.176-0.488-0.392-0.961-0.647-1.42-0.25-0.463-0.51-0.893-0.782-1.292v0c-0.375-0.55-0.811-1.033-1.309-1.451-0.494-0.411-1.025-0.715-1.594-0.91-0.56-0.194-1.138-0.26-1.737-0.197-0.602 0.057-1.192 0.282-1.77 0.676v0c-0.455 0.31-0.807 0.673-1.057 1.09-0.256 0.421-0.429 0.872-0.521 1.353-0.095 0.476-0.119 0.965-0.072 1.467 0.045 0.512 0.132 1.007 0.261 1.487 0.133 0.485 0.298 0.944 0.494 1.376 0.206 0.435 0.416 0.822 0.631 1.161zM217.23 256.221v0c-1.162 0.792-2.346 1.278-3.554 1.46-1.209 0.191-2.379 0.133-3.508-0.173-1.133-0.312-2.197-0.837-3.192-1.573-0.998-0.741-1.867-1.654-2.605-2.737v0c-0.826-1.212-1.416-2.446-1.769-3.7-0.352-1.264-0.489-2.502-0.411-3.715 0.078-1.212 0.358-2.381 0.84-3.506 0.482-1.126 1.144-2.168 1.986-3.128v0c0.095-0.065 0.116-0.186 0.061-0.363-0.049-0.18-0.115-0.374-0.198-0.58-0.083-0.206-0.146-0.402-0.19-0.585-0.049-0.18-0.023-0.305 0.079-0.374v0c1.606-0.864 3.135-1.52 4.588-1.968 1.452-0.439 2.833-0.595 4.143-0.469 1.31 0.126 2.549 0.568 3.715 1.327 1.17 0.764 2.275 1.91 3.315 3.436v0c0.669 0.982 1.178 1.988 1.526 3.016 0.353 1.025 0.56 2.051 0.619 3.08 0.069 1.03-0.005 2.037-0.221 3.022-0.212 0.991-0.553 1.938-1.022 2.842-0.465 0.909-1.052 1.761-1.76 2.555-0.708 0.795-1.522 1.505-2.442 2.133zM227.729 246.438v0c-0.077-0.256-0.176-0.539-0.295-0.848-0.115-0.314-0.256-0.636-0.423-0.965v0l-0.373-0.929c-0.292-0.067-0.605-0.147-0.94-0.239-0.325-0.092-0.645-0.198-0.96-0.319-0.32-0.126-0.617-0.267-0.893-0.426-0.281-0.163-0.52-0.347-0.719-0.553v0c-0.014-0.015 0.028-0.079 0.126-0.192 0.093-0.109 0.213-0.244 0.36-0.404 0.156-0.161 0.323-0.331 0.499-0.511 0.186-0.179 0.357-0.349 0.513-0.51 0.152-0.156 0.279-0.283 0.381-0.382 0.103-0.109 0.154-0.163 0.154-0.163v0c-0.24-0.552-0.46-1.081-0.658-1.589-0.203-0.503-0.41-1.011-0.622-1.524-0.207-0.517-0.424-1.04-0.651-1.567-0.226-0.527-0.481-1.084-0.764-1.67v0c-0.524-1.109-0.956-2.108-1.296-2.997-0.345-0.894-0.66-1.728-0.945-2.502v0c-0.042-0.092-0.057-0.195-0.045-0.31 0.007-0.12 0.028-0.235 0.064-0.345 0.031-0.115 0.071-0.22 0.12-0.315 0.04-0.095 0.077-0.169 0.112-0.222v0c0.015-0.033 0.087-0.164 0.216-0.392 0.124-0.224 0.272-0.476 0.445-0.756 0.168-0.285 0.343-0.559 0.525-0.82 0.177-0.266 0.335-0.465 0.472-0.597v0l0.175-0.17c0.107-0.104 0.234-0.179 0.379-0.224 0.15-0.041 0.312-0.004 0.488 0.109v0c1.12 0.514 2.337 1.084 3.652 1.712 1.31 0.623 2.71 1.352 4.199 2.189v0c0.794 0.451 1.558 0.869 2.291 1.257 0.728 0.392 1.442 0.769 2.142 1.131 0.7 0.363 1.402 0.723 2.107 1.081 0.705 0.358 1.431 0.728 2.179 1.11v0c0.295 0.188 0.542 0.321 0.742 0.402 0.2 0.08 0.365 0.133 0.495 0.16 0.134 0.031 0.235 0.047 0.301 0.048 0.072 0.006 0.127 0.029 0.165 0.068v0c0.038 0.039 0.014 0.142-0.07 0.308v0l-1.489 2.799c-0.104 0.214-0.212 0.436-0.321 0.665-0.109 0.219-0.214 0.424-0.313 0.614-0.109 0.19-0.201 0.354-0.275 0.492-0.084 0.138-0.15 0.23-0.199 0.278v0l-0.058 0.056c-0.093 0.09-0.187 0.124-0.283 0.104-0.101-0.016-0.182-0.046-0.244-0.091v0c-0.281-0.154-0.543-0.288-0.785-0.402-0.238-0.11-0.476-0.224-0.715-0.344-0.233-0.114-0.479-0.241-0.735-0.38-0.262-0.144-0.554-0.324-0.877-0.541v0c-0.048-0.02-0.115-0.012-0.202 0.026-0.082 0.032-0.17 0.084-0.262 0.154-0.097 0.066-0.197 0.143-0.3 0.233-0.098 0.085-0.185 0.165-0.263 0.24v0c-0.259 0.25-0.464 0.453-0.616 0.609-0.152 0.156-0.286 0.295-0.403 0.418-0.122 0.118-0.237 0.234-0.345 0.348-0.103 0.109-0.235 0.241-0.395 0.396v0c-0.195 0.189-0.398 0.38-0.608 0.573-0.21 0.193-0.403 0.37-0.578 0.531v0l-0.593 0.53c0.291 0.653 0.555 1.277 0.79 1.872 0.235 0.595 0.469 1.214 0.703 1.857v0c0.037 0.068 0.048 0.142 0.032 0.224-0.016 0.081-0.051 0.148-0.104 0.199v0c-0.044 0.042-0.073 0.061-0.087 0.057v0c-0.881 0.398-1.652 0.695-2.314 0.89-0.661 0.205-1.264 0.358-1.809 0.459zM225.769 230.807v0c0.415 0.751 0.78 1.447 1.095 2.086 0.311 0.644 0.585 1.215 0.821 1.715 0.232 0.503 0.424 0.932 0.577 1.284 0.157 0.348 0.285 0.612 0.382 0.792v0l0.085 0.088c0.042 0.044 0.066 0.073 0.071 0.088v0l2.417-2.337c-0.389-0.256-0.789-0.513-1.197-0.769-0.414-0.252-0.836-0.523-1.269-0.814-0.442-0.291-0.907-0.611-1.396-0.96-0.494-0.345-1.023-0.735-1.586-1.173zM245.82 230.267l-1.551 2.033c-0.078 0.069-0.166 0.095-0.265 0.08-0.09-0.017-0.175-0.056-0.256-0.119v0c-0.065-0.049-0.114-0.108-0.147-0.176v0l-1.581-3.37c-0.019-0.031-0.122-0.131-0.309-0.3-0.189-0.178-0.423-0.391-0.704-0.64-0.286-0.252-0.605-0.534-0.957-0.845-0.352-0.311-0.699-0.618-1.04-0.921-0.343-0.312-0.67-0.605-0.983-0.878-0.309-0.278-0.566-0.513-0.771-0.703v0c-0.084-0.081-0.213-0.197-0.388-0.347-0.166-0.152-0.361-0.327-0.587-0.524-0.231-0.202-0.473-0.416-0.726-0.644-0.259-0.232-0.518-0.463-0.777-0.695v0l-2.215-1.933c-0.109 0.233-0.222 0.476-0.338 0.729-0.116 0.253-0.234 0.497-0.353 0.731-0.115 0.229-0.228 0.445-0.341 0.649-0.118 0.2-0.229 0.368-0.332 0.503v0c-0.062 0.081-0.142 0.114-0.241 0.098-0.109-0.014-0.203-0.053-0.285-0.115v0c-0.097-0.074-0.151-0.149-0.161-0.225v0l-0.487-4.855c-0.028-0.389-0.021-0.746 0.023-1.072 0.043-0.326 0.149-0.677 0.316-1.053 0.167-0.376 0.415-0.807 0.742-1.292 0.327-0.485 0.763-1.084 1.306-1.796v0c0.931-1.22 1.883-2.206 2.858-2.958 0.974-0.751 1.946-1.275 2.914-1.57v0c0.701-0.225 1.379-0.392 2.033-0.5 0.655-0.098 1.303-0.108 1.944-0.029 0.64 0.078 1.277 0.252 1.909 0.521 0.632 0.269 1.283 0.658 1.953 1.169v0c1.274 0.972 2.262 2.024 2.962 3.155 0.696 1.137 1.165 2.314 1.406 3.532 0.242 1.218 0.285 2.459 0.131 3.725-0.15 1.261-0.445 2.509-0.884 3.746-0.439 1.237-0.992 2.438-1.659 3.604-0.661 1.17-1.381 2.265-2.159 3.285zM235.781 215.578v0l1.254 1.161c0.431 0.397 0.896 0.824 1.393 1.281 0.492 0.452 0.992 0.911 1.501 1.375 0.518 0.463 1.025 0.918 1.521 1.365 0.496 0.447 0.962 0.866 1.398 1.258 0.43 0.388 0.817 0.738 1.159 1.05 0.341 0.303 0.612 0.548 0.811 0.734v0l0.308 0.286c0.684-0.896 1.119-1.764 1.306-2.604 0.182-0.843 0.167-1.653-0.044-2.429-0.221-0.775-0.603-1.511-1.147-2.207-0.554-0.696-1.225-1.344-2.014-1.946v0c-0.567-0.432-1.172-0.77-1.816-1.013-0.643-0.243-1.316-0.397-2.017-0.462v0c-0.702-0.065-1.336 0.027-1.903 0.278-0.567 0.251-1.057 0.646-1.469 1.186v0c-0.07 0.092-0.123 0.205-0.157 0.341-0.04 0.131-0.069 0.247-0.084 0.346zM252.591 197.261v0c0.103 0.095 0.234 0.244 0.394 0.447 0.16 0.203 0.338 0.436 0.536 0.699 0.197 0.262 0.407 0.544 0.63 0.843 0.223 0.3 0.451 0.598 0.684 0.896v0c0.093 0.113 0.155 0.205 0.186 0.276 0.031 0.071 0.034 0.158 0.008 0.26-0.025 0.102-0.081 0.234-0.169 0.395-0.082 0.164-0.195 0.393-0.339 0.685v0l-0.897 1.727 3.573 2.405 3.448-6.312 0.482 0.263c0.005 0.018 0.075 0.146 0.21 0.382 0.134 0.236 0.298 0.511 0.49 0.824 0.183 0.317 0.369 0.642 0.557 0.978 0.182 0.332 0.326 0.608 0.43 0.827v0c0.103 0.165 0.171 0.325 0.202 0.481 0.025 0.153 0.024 0.303-0.003 0.452-0.027 0.148-0.079 0.301-0.158 0.459-0.069 0.156-0.153 0.323-0.251 0.501v0c-0.404 0.739-0.843 1.501-1.318 2.287-0.466 0.782-0.942 1.555-1.429 2.318-0.484 0.773-0.962 1.521-1.435 2.246-0.482 0.727-0.932 1.395-1.349 2.003v0c-0.039 0.056-0.101 0.092-0.187 0.107-0.076 0.012-0.153-0.003-0.23-0.045v0c-0.02 0.036-0.077-0.023-0.172-0.175-0.092-0.158-0.213-0.368-0.365-0.629-0.146-0.258-0.311-0.549-0.497-0.875-0.195-0.323-0.393-0.64-0.594-0.951v0l-2.664-1.711c-0.449-0.284-0.783-0.501-1.002-0.651-0.217-0.142-0.334-0.217-0.352-0.228v0c-0.273 0.485-0.497 0.839-0.673 1.061-0.172 0.216-0.329 0.284-0.472 0.206v0c-0.066-0.036-0.157-0.159-0.274-0.37-0.114-0.217-0.24-0.475-0.377-0.775-0.144-0.303-0.287-0.621-0.431-0.954-0.152-0.331-0.295-0.629-0.428-0.896v0l-4.018-2.589-0.019 0.036c-0.092 0.182-0.175 0.349-0.251 0.501-0.075 0.152-0.146 0.288-0.211 0.407v0c-0.218 0.399-0.397 0.669-0.535 0.811-0.133 0.144-0.262 0.182-0.387 0.113v0c-0.06-0.033-0.151-0.148-0.275-0.347-0.127-0.193-0.266-0.428-0.417-0.703-0.157-0.279-0.32-0.569-0.488-0.871-0.165-0.307-0.325-0.588-0.48-0.842v0l-0.851-1.417 2.813-5.15 2.868-6.314c0.003-0.006 0.018-0.025 0.043-0.058 0.025-0.033 0.059-0.065 0.099-0.097 0.047-0.029 0.104-0.048 0.171-0.057 0.067-0.01 0.146 0.01 0.235 0.058v0l0.546 0.531c0.146 0.157 0.298 0.333 0.455 0.527 0.16 0.188 0.32 0.392 0.48 0.61v0l1.128 1.313c0.111 0.138 0.18 0.265 0.21 0.381 0.032 0.111-0.01 0.288-0.129 0.533v0c-0.321 0.63-0.673 1.339-1.057 2.127-0.384 0.788-0.832 1.685-1.343 2.691v0c0.1 0.101 0.182 0.169 0.248 0.205 0.072 0.039 0.201 0.121 0.388 0.247v0l0.529 0.37c0.262 0.158 0.532 0.337 0.81 0.536 0.288 0.196 0.64 0.443 1.059 0.74v0c0.213-0.433 0.418-0.851 0.615-1.254 0.2-0.409 0.384-0.781 0.551-1.115 0.167-0.334 0.314-0.625 0.442-0.873 0.124-0.242 0.214-0.413 0.269-0.515v0c0.036-0.066 0.1-0.127 0.194-0.184 0.093-0.057 0.211-0.047 0.354 0.031v0c0.066 0.036 0.129 0.09 0.19 0.162zM259.432 187.446l7.045 3.355c0.074 0.035 0.144 0.079 0.211 0.133 0.069 0.048 0.107 0.131 0.114 0.249v0c0.001 0.037 0 0.232-0.002 0.587-0.008 0.352-0.018 0.758-0.03 1.217-0.005 0.462-0.009 0.917-0.009 1.367-0.003 0.455-0.006 0.802-0.008 1.04v0c0.004 0.125 0 0.272-0.012 0.442-0.006 0.172-0.036 0.331-0.091 0.477v0c-0.047 0.127-0.12 0.224-0.216 0.289-0.09 0.068-0.218 0.071-0.384 0.009v0c-0.388-0.145-0.738-0.286-1.049-0.424-0.317-0.14-0.644-0.294-0.98-0.463-0.338-0.162-0.709-0.344-1.112-0.545-0.412-0.197-0.905-0.421-1.478-0.671v0c-0.76-0.334-1.485-0.663-2.177-0.986-0.694-0.317-1.416-0.644-2.167-0.982v0l-2.185-1.021c-0.353-0.161-0.715-0.328-1.085-0.503-0.372-0.168-0.757-0.34-1.155-0.517v0l-1.54-0.738c-0.019-0.007-0.038 0.015-0.058 0.066v0c-0.026 0.07-0.054 0.194-0.084 0.371-0.039 0.181-0.077 0.392-0.115 0.631-0.041 0.246-0.088 0.518-0.142 0.817-0.057 0.29-0.117 0.587-0.179 0.89v0c-0.026 0.07-0.068 0.134-0.126 0.192-0.049 0.054-0.096 0.073-0.141 0.056v0c-0.038-0.014-0.063-0.034-0.075-0.061v0l-2.92-3.513c0.07-0.518 0.155-1.077 0.256-1.677 0.098-0.594 0.223-1.229 0.373-1.904 0.148-0.67 0.328-1.375 0.539-2.115 0.211-0.74 0.467-1.515 0.768-2.323v0c0.358-0.903 0.782-1.756 1.27-2.56 0.479-0.8 1.035-1.462 1.666-1.988 0.633-0.532 1.35-0.881 2.151-1.046 0.807-0.163 1.71-0.058 2.709 0.314v0c0.554 0.206 1.027 0.492 1.421 0.856 0.396 0.358 0.724 0.752 0.983 1.182 0.264 0.439 0.471 0.886 0.62 1.34 0.156 0.457 0.276 0.882 0.362 1.277 0.085 0.394 0.138 0.737 0.16 1.027 0.031 0.287 0.045 0.481 0.044 0.582v0c0.019 0.007 0.044 0.009 0.074 0.006 0.03-0.003 0.092-0.013 0.185-0.029 0.093-0.016 0.222-0.041 0.386-0.074 0.164-0.033 0.389-0.072 0.675-0.118v0c0.262-0.062 0.607-0.122 1.034-0.179 0.421-0.06 0.92-0.135 1.497-0.225 0.577-0.089 1.223-0.2 1.94-0.331 0.716-0.132 1.497-0.301 2.342-0.508v0c0.188-0.097 0.335-0.237 0.44-0.423 0.097-0.181 0.179-0.354 0.247-0.517 0.068-0.163 0.13-0.3 0.185-0.409 0.055-0.11 0.131-0.147 0.227-0.111v0c0.07 0.026 0.125 0.13 0.166 0.312 0.037 0.173 0.066 0.376 0.088 0.609 0.024 0.226 0.044 0.455 0.06 0.685 0.016 0.23 0.03 0.406 0.042 0.527v0c0.028 0.257 0.047 0.514 0.06 0.773 0.01 0.265 0.027 0.55 0.051 0.856 0.015 0.31 0.043 0.654 0.083 1.031 0.04 0.377 0.093 0.81 0.157 1.298v0c0.026 0.126 0.03 0.24 0.014 0.342-0.008 0.099-0.026 0.186-0.054 0.263v0c-0.059 0.159-0.149 0.282-0.268 0.367-0.119 0.086-0.244 0.148-0.374 0.187-0.139 0.042-0.271 0.066-0.396 0.07-0.127 0.011-0.232 0.019-0.313 0.024v0zM252.492 184.075l5.388 2.607c0.166-0.445 0.225-0.953 0.176-1.522-0.049-0.569-0.179-1.114-0.391-1.635-0.216-0.53-0.502-1.006-0.858-1.429-0.363-0.425-0.777-0.725-1.242-0.898v0c-1.266-0.472-2.183 0.052-2.75 1.573v0c-0.109 0.293-0.18 0.542-0.213 0.747-0.033 0.205-0.07 0.391-0.11 0.557zM3.25 142.313c0-4.634 3.757-8.391 8.391-8.391 4.634 0 8.391 3.757 8.391 8.391 0 4.634-3.757 8.391-8.391 8.391-4.634 0-8.391-3.757-8.391-8.391zM259.968 142.313c0-4.634 3.757-8.391 8.391-8.391 4.634 0 8.391 3.757 8.391 8.391 0 4.634-3.757 8.391-8.391 8.391-4.634 0-8.391-3.757-8.391-8.391z" fill="#ffd300" data-fill-palette-color="accent"></path></svg></g></svg><rect width="280" height="280" fill="none" stroke="none" visibility="hidden"></rect></g></svg></g></svg>